<svg xmlns="http://www.w3.org/2000/svg" fill="none" viewBox="0 0 34 36"><path fill="#000" d="M15.7596 36c-.094-.0414-.188-.094-.2821-.1232-1.177-.3873-1.8378-1.5201-1.6132-2.7667.204-1.1281 1.2786-1.9572 2.4744-1.9008a2.3928 2.3928 0 0 1 2.2468 2.0024c.2125 1.3687-.7295 2.4188-1.6254 2.6651A2.1019 2.1019 0 0 0 16.678 36h-.9184Zm-.7183-2.3926a1.1793 1.1793 0 0 0 .3139.8851 1.1787 1.1787 0 0 0 .8613.3743 1.178 1.178 0 0 0 1.1751-1.2594 1.177 1.177 0 0 0-.3139-.885 1.178 1.178 0 0 0-1.7225 0 1.1775 1.1775 0 0 0-.3139.885ZM28.6588 7.1607c2.3051 0 4.3338 1.5267 4.8603 3.6663.1353.5509.2068 1.1084-.0405 1.6518-.3346.7351-1.0895 1.0783-1.9901.9927-1.9789-.188-4.3038-2.4386-4.1769-4.7616.0141-.2576 0-.516 0-.7737.0122-.532.2463-.7624.7822-.7737.1899-.0056.3779-.0018.565-.0018Zm-.0799 1.2569c-.1805 1.6301.7097 2.6454 1.9234 3.4294.3807.2454.894.3084 1.3575.3977.33.0649.5706-.188.5547-.5189a3.9056 3.9056 0 0 0-.0941-.6581c-.188-.8658-.7981-1.4374-1.427-1.9874-.6637-.5734-1.4421-.7445-2.3145-.6627ZM6.0485 12.0333c0 1.161-.313 2.1989-1.1056 3.0675-.7755.8461-1.8651.8621-2.6454.0254-.7173-.769-1.067-1.6856-1.1027-2.7347-.0348-1.0201 0-2.0372.6223-2.8955.408-.5641.9157-1.0605 1.4045-1.5625a.5104.5104 0 0 1 .7361-.0235c.9213.8 1.7599 1.665 1.9742 2.9359.0696.3855.0846.786.1166 1.1874ZM3.6042 9.2666c-.7285.6195-1.146 1.3678-1.1882 2.3135-.0442.9646.0329 1.8906.721 2.6586.3272.3639.582.3545.9326.0066.9796-.9767 1.1507-3.797-.4635-4.9834l-.0019.0047Zm17.5096-1.7704c.282 0 .5641-.0113.8461 0 .3121.015.5264.2087.5405.5011.0583 1.162.1016 2.3371-.6082 3.3533-.8094 1.1592-1.7937 2.0992-3.2565 2.3775-1.0651.2021-1.9037-.1363-2.2656-.9457-.2708-.6036-.1702-1.2221 0-1.82.5772-2.025 2.5646-3.4756 4.7437-3.4662Zm.1711 1.208c-.911-.0573-1.7213.1354-2.4104.7521-.7577.6769-1.4102 1.4102-1.4318 2.5026-.0094.455.188.6439.6402.6073a2.9848 2.9848 0 0 0 1.7204-.7023c.9674-.8169 1.6311-1.7721 1.4816-3.1596ZM3.0178 27.2017c0-.2924-.0104-.5857 0-.8781.0103-.2923.188-.4935.4503-.5076 1.1478-.0621 2.3145-.1297 3.3298.5546 1.2165.8198 2.1848 1.8342 2.4565 3.3571.188 1.0341-.1505 1.8341-.9401 2.2036-.4926.2294-1.0087.188-1.5136.0809-2.2054-.4795-3.7923-2.5035-3.783-4.8105Zm1.209-.188c-.0593.9025.123 1.7044.7229 2.3897.658.7521 1.3866 1.3979 2.4564 1.4609.5303.031.7042-.188.676-.7135-.078-1.4421-1.9065-3.4051-3.8516-3.139l-.0038.0019Zm16.8595-11.71c.2924 0 .5857-.0094.8781 0 .2923.0094.5114.1984.5274.4701.0667 1.1497.1175 2.3154-.5697 3.327-.816 1.2014-1.8229 2.1622-3.3317 2.4358-1.0435.188-1.8802-.1551-2.2281-.957-.2641-.6036-.1645-1.2222.0085-1.821.5819-2.0146 2.5589-3.4661 4.7155-3.4549Zm.2162 1.2146c-.9513-.0714-1.7626.1411-2.4508.7596-.7389.6637-1.3735 1.3848-1.4101 2.4509-.016.5104.1955.6853.7126.6374 1.1281-.1035 1.8642-.8019 2.5288-1.6151.5293-.6431.6468-1.4027.6195-2.2328ZM27.639 4.7738c0 1.303-1.1178 2.4207-2.4198 2.4142-1.302-.0066-2.4245-1.1282-2.4095-2.4245a2.4154 2.4154 0 0 1 2.4197-2.3626 2.415 2.415 0 0 1 2.4096 2.3729Zm-1.2362 0a1.178 1.178 0 1 0-2.356 0 1.178 1.178 0 0 0 2.356 0Zm-15.7073 6.0166c1.271-.1034 2.418.9204 2.5204 2.2487.094 1.2785-.9297 2.4443-2.2374 2.5439-1.3406.0987-2.4687-.8884-2.5608-2.3126a2.3594 2.3594 0 0 1 2.2778-2.48Zm.1157 1.208a1.1653 1.1653 0 0 0-.4526.0851 1.1664 1.1664 0 0 0-.7291 1.0882 1.1844 1.1844 0 1 0 1.1817-1.1733ZM21.6079 22.787a2.4145 2.4145 0 0 1 2.4091-2.3715 2.4142 2.4142 0 0 1 2.4183 2.3621c.0188 1.2954-1.0962 2.416-2.4095 2.4207a2.4443 2.4443 0 0 1-2.4179-2.4113Zm3.5931.0084a1.182 1.182 0 0 0-2.0177-.8399 1.1819 1.1819 0 0 0 .1831 1.8202c.1951.1294.4243.1979.6585.1967a1.1622 1.1622 0 0 0 .8356-.3411 1.1644 1.1644 0 0 0 .3405-.8359Zm-13.1849 3.5827a2.421 2.421 0 0 1 2.3944-2.4001c1.3162-.0056 2.4095 1.1009 2.4039 2.4302a2.3985 2.3985 0 0 1-.6791 1.7525 2.3983 2.3983 0 0 1-1.7338.7253 2.3979 2.3979 0 0 1-2.2327-1.5604 2.3984 2.3984 0 0 1-.1489-.9475h-.0038Zm2.3832 1.1911a1.1768 1.1768 0 0 0 1.1751-1.6179 1.1774 1.1774 0 0 0-1.13-.7323 1.1757 1.1757 0 0 0-.8784.3044 1.176 1.176 0 0 0-.3835.8469 1.1763 1.1763 0 0 0 .3507.861 1.176 1.176 0 0 0 .8661.3379Zm-9.5917-6.5836a2.4236 2.4236 0 0 1-2.3821 2.4123A2.4265 2.4265 0 0 1 0 20.9894c0-1.3265 1.1112-2.433 2.4217-2.4104a2.4186 2.4186 0 0 1 2.386 2.4066Zm-1.222-.0094a1.1704 1.1704 0 0 0-1.1827-1.1685 1.1836 1.1836 0 1 0 1.1873 1.1685h-.0047Zm25.8392-5.4009a2.3969 2.3969 0 0 1-1.4761 2.2217 2.397 2.397 0 0 1-2.6165-.5185 2.3978 2.3978 0 0 1-.5175-2.6167 2.3978 2.3978 0 0 1 2.2223-1.4753 2.3887 2.3887 0 0 1 2.3878 2.3888Zm-2.3728-1.1807a1.1924 1.1924 0 0 0-1.1183.7169 1.1925 1.1925 0 0 0 .2381 1.3069 1.193 1.193 0 0 0 2.0488-.8205 1.2147 1.2147 0 0 0-1.1733-1.2033h.0047Z"/><path fill="#ECBC4D" d="M15.0414 33.6073a1.1775 1.1775 0 0 1 .7056-1.1618 1.1776 1.1776 0 0 1 1.3308.2767 1.1784 1.1784 0 0 1 .3138.8851 1.1775 1.1775 0 0 1-.7055 1.1618 1.1781 1.1781 0 0 1-1.6447-1.1618ZM28.5787 8.4177c.8762-.0818 1.6546.0893 2.3117.6637.629.55 1.2372 1.1215 1.4271 1.9874.05.2162.0814.4364.094.658.016.3328-.2247.5838-.5547.5189-.4634-.0893-.9767-.1522-1.3574-.3976-1.2147-.785-2.1087-1.8003-1.9207-3.4304Zm-24.9724.844c1.6141 1.1864 1.443 4.0067.47 4.9825-.3506.3479-.6054.3573-.9326-.0066-.6881-.768-.7652-1.6921-.721-2.6585.0376-.9495.455-1.6979 1.1836-2.3174Zm17.6786-.5574c.1448 1.3876-.5143 2.3427-1.4816 3.1568a2.9848 2.9848 0 0 1-1.7204.7023c-.4559.0366-.6496-.1523-.6402-.6073.0235-1.0934.6741-1.8257 1.4318-2.5026.6891-.6167 1.4994-.8047 2.4104-.7492ZM4.2305 27.0117c1.9489-.266 3.7773 1.6969 3.8544 3.1371.0282.5237-.1457.7446-.676.7136-1.0697-.063-1.7946-.7051-2.4564-1.4609-.6026-.6854-.785-1.4873-.722-2.3898Zm17.0718-10.4934c.0273.8301-.094 1.5897-.6167 2.2327-.6646.8132-1.4045 1.5117-2.5288 1.6151-.5171.0479-.7286-.1269-.7126-.6374.0338-1.0661.6684-1.7862 1.4101-2.4508.6854-.6186 1.4967-.8264 2.448-.7596ZM26.4008 4.77a1.178 1.178 0 1 1-2.356 0 1.178 1.178 0 0 1 2.356 0Zm-15.5896 7.2284a1.1868 1.1868 0 0 1 1.1022.7323 1.187 1.187 0 0 1-.2601 1.2976 1.1873 1.1873 0 0 1-2.0238-.8567 1.1667 1.1667 0 0 1 1.1817-1.1732Zm14.3897 10.7971a1.1816 1.1816 0 1 1-1.645-1.1157 1.1799 1.1799 0 0 1 .9196-.0033 1.1807 1.1807 0 0 1 .6435.657c.0579.147.0858.3041.0819.462Zm-10.8013 4.7736a1.1758 1.1758 0 0 1-.8661-.3379 1.1782 1.1782 0 0 1-.3507-.861 1.178 1.178 0 0 1 .3835-.8469 1.1768 1.1768 0 0 1 .8784-.3044 1.1772 1.1772 0 0 1 1.2168 1.1989 1.178 1.178 0 0 1-.3835.8469 1.1764 1.1764 0 0 1-.8784.3044ZM3.5902 20.9763a1.1844 1.1844 0 0 1-1.1639 1.1986 1.1836 1.1836 0 1 1-.0235-2.3672 1.1712 1.1712 0 0 1 1.0962.7173c.06.1429.091.2963.0912.4513Zm23.4573-6.5817a1.1927 1.1927 0 0 1 1.1479 1.2072 1.193 1.193 0 0 1-2.2979.4345 1.1926 1.1926 0 0 1 .283-1.314 1.193 1.193 0 0 1 .867-.3277Z"/><path fill="#000" d="M12.0615 21.0477c0 1.161-.313 2.1989-1.1055 3.0675-.7756.8508-1.8652.8621-2.6455.0254-.7173-.769-1.067-1.6856-1.1027-2.7347-.0357-1.02 0-2.0372.6223-2.8955.4071-.5641.9157-1.0605 1.4036-1.5625a.5102.5102 0 0 1 .736-.0235c.9214.8 1.7609 1.6649 1.9743 2.9359.0705.3902.0808.7907.1175 1.1874ZM9.6173 18.281c-.7277.6195-1.145 1.3678-1.1874 2.3136-.0442.9645.033 1.8905.721 2.6585.3263.3639.582.3545.9326.0066.9787-.972 1.1498-3.7923-.4653-4.9787h-.001Z"/><path fill="#ECBC4D" d="M9.618 18.281c1.6151 1.1864 1.444 4.0067.47 4.9825-.3506.3478-.6063.3572-.9325-.0066-.6882-.768-.7653-1.6921-.7211-2.6586.0385-.9504.456-1.6978 1.1836-2.3173Z"/><path fill="#000" d="M33.3087 24.7076c-.3516 1.1065-.9702 1.9996-1.9892 2.5843-.9984.5725-2.0391.251-2.527-.784-.4484-.9504-.502-1.931-.2153-2.9406.282-.9824.6261-1.9385 1.4769-2.5665.5641-.4136 1.1958-.7314 1.8134-1.0595a.5115.5115 0 0 1 .3976-.0502.5103.5103 0 0 1 .3113.2523c.6327 1.0426 1.1676 2.1228.9861 3.3994-.0554.392-.1673.7765-.2538 1.1648Zm-1.4816-3.3796c-.8818.3675-1.5088.9523-1.8379 1.8397-.3356.9063-.5452 1.8107-.1241 2.7526.1993.4466.4456.5143.8856.2905 1.2278-.627 2.2515-3.2602 1.0764-4.8828Z"/><path fill="#ECBC4D" d="M31.8268 21.3279c1.1751 1.6226.1513 4.2558-1.0764 4.8828-.44.2238-.6863.1561-.8856-.2905-.4211-.94-.2115-1.8463.1241-2.7526.329-.8874.9561-1.4721 1.8379-1.8397Z"/><path fill="#000" d="M25.5883 28.3223c.7907.8461 1.2645 1.8266 1.2729 3.0027.0076 1.1506-.784 1.8989-1.9253 1.8153-1.0482-.0771-1.9281-.5133-2.6661-1.2579-.7192-.7257-1.381-1.4994-1.5098-2.5486-.0846-.6909-.0489-1.3998-.031-2.1001a.5121.5121 0 0 1 .152-.3707.511.511 0 0 1 .3726-.1473c1.2221-.0386 2.4216.0272 3.4454.8122.314.2416.5942.5283.8893.7944Zm-3.671-.3713c-.1138.9485.0874 1.7814.6985 2.5044.6232.7379 1.3086 1.365 2.3352 1.4618.4869.0451.6674-.1354.689-.6289.0574-1.3772-1.7316-3.563-3.7227-3.3373Z"/><path fill="#ECBC4D" d="M21.9175 27.9507c1.9911-.2256 3.7801 1.9601 3.7228 3.3374-.0217.4935-.2022.674-.6891.6289-1.0266-.094-1.7119-.7239-2.3352-1.4618-.6111-.723-.8123-1.5559-.6985-2.5045Z"/><path fill="#000" d="M12.4374 7.4125c-.6176.9824-1.4393 1.6921-2.573 2.0033-1.1103.3055-2.0372-.267-2.2497-1.3904-.1965-1.034 0-1.9958.5274-2.9011.5142-.8818 1.0905-1.7213 2.072-2.1162.6458-.2604 1.3396-.408 2.0202-.5716a.5108.5108 0 0 1 .5501.1898.5086.5086 0 0 1 .0854.1863c.3516 1.1676.5998 2.3502.1044 3.5376-.1514.3638-.3563.7079-.5368 1.0623Zm-.5923-3.6429c-.9457.1344-1.6987.5434-2.2393 1.3161-.5518.7925-.9814 1.617-.8094 2.6323.0818.4823.3027.6101.785.503 1.349-.2934 2.9989-2.5862 2.2637-4.4514Z"/><path fill="#ECBC4D" d="M11.845 3.7698c.7323 1.8651-.9176 4.158-2.2638 4.457-.4823.1071-.7032-.0207-.785-.503-.172-1.0162.2576-1.8407.8095-2.6322.5471-.7784 1.2992-1.1874 2.2393-1.3218Z"/><path fill="#000" d="M19.4118 4.8828c-.8461.7944-1.821 1.2729-2.9961 1.287-1.1507.014-1.9027-.7737-1.8247-1.916.0714-1.049.5029-1.93 1.2447-2.6726.722-.722 1.4919-1.3876 2.5382-1.522.691-.0884 1.3998-.0555 2.1002-.0414a.51.51 0 0 1 .3714.1498.5091.5091 0 0 1 .1485.372c.0451 1.222-.0141 2.4226-.7944 3.4492-.2378.3158-.5227.597-.7878.894Zm.3525-3.6739c-.9485-.109-1.7805.094-2.5006.7117-.7352.627-1.3585 1.3161-1.4496 2.3427-.0433.487.1382.6665.6317.6853 1.3782.0508 3.5554-1.7523 3.3185-3.7397Z"/><path fill="#ECBC4D" d="M19.7646 1.209c.2369 1.9902-1.9404 3.7905-3.3186 3.7397-.4935-.0188-.675-.1984-.6317-.6853.094-1.0275.7144-1.7157 1.4496-2.3427.7201-.6149 1.5521-.8208 2.5007-.7117Z"/></svg>