<svg xmlns="http://www.w3.org/2000/svg" fill="none" viewBox="0 0 14 36"><path fill="#000" d="M6.14 11.49v-1.28c-.43-.16-.85-.27-1.21-.47-1.07-.61-1.54-1.61-1.64-2.82a6.28 6.28 0 0 1 .66-3.02A18.25 18.25 0 0 1 6.15.2c.2-.26.41-.28.6-.03a16.3 16.3 0 0 1 2.62 4.75 4.63 4.63 0 0 1 0 3.21 3.03 3.03 0 0 1-2.31 1.96l-.13.02-.13.03v1.34h5.36c.74 0 1.32.3 1.65 1 .1.24.17.5.17.77.03.9.03 1.8 0 2.7a2.22 2.22 0 0 1-.83 1.71c-.17.14-.22.28-.22.5v17.29c0 .47-.06.54-.52.54H.57c-.52 0-.57-.05-.57-.58V13.23c0-1.01.7-1.73 1.69-1.74h4.45Zm-2.86.66H1.74c-.71 0-1.1.4-1.1 1.14v22.06h11.63V18.16c-.2.01-.39.04-.57.04-.6.02-.83.26-.83.87v3.45c0 .36-.1.71-.31 1a1.7 1.7 0 0 1-3.1-1.03v-6.2c0-.46-.3-.8-.74-.8-.45.01-.75.31-.76.78v1.18c0 .14-.01.28-.05.42-.08.32-.28.6-.55.78-.27.19-.6.26-.92.2a1.3 1.3 0 0 1-.83-.44 1.36 1.36 0 0 1-.32-.9v-5.37Zm.66 0a.83.83 0 0 0-.03.13v5.24a.73.73 0 0 0 .22.52.7.7 0 0 0 .51.2c.4-.02.68-.32.69-.73 0-.43-.02-.86 0-1.29.02-.47.2-.86.6-1.12.48-.3.98-.33 1.46-.06.49.27.7.71.7 1.28v6.1c.01.24.08.49.2.7a1 1 0 0 0 1.18.45 1.08 1.08 0 0 0 .77-1.06v-3.59c0-.79.55-1.34 1.32-1.35 1.12-.02 1.8-.72 1.8-1.86v-2.3c0-.82-.43-1.27-1.22-1.27h-8.2ZM6.49.87a16.2 16.2 0 0 0-2.2 3.9A4.5 4.5 0 0 0 4 7.45c.25 1.04.86 1.76 1.9 2 1.02.22 1.9-.08 2.54-.95.56-.76.68-1.65.5-2.57C8.6 4.02 7.57 2.45 6.5.87Z"/><path fill="#ECBC4D" d="M3.28 12.15v5.38c0 .33.12.64.33.9.2.24.5.4.82.44.32.05.65-.02.93-.2a1.36 1.36 0 0 0 .6-1.21v-1.18c.01-.47.31-.77.76-.77.43 0 .74.33.74.79v6.21a1.7 1.7 0 1 0 3.41.02v-3.45c0-.61.23-.85.83-.87.18 0 .37-.03.57-.04v17.17H.64l-.01-.29V13.3c0-.73.4-1.14 1.11-1.14h1.54Zm-.93 9.1v-2.62c0-.22-.08-.36-.3-.39-.18-.02-.32.14-.32.37v5.3c0 .1.12.27.23.33.2.1.39-.08.4-.37v-2.62Z"/><path fill="#000" d="M2.35 21.25v2.62c0 .29-.18.47-.39.36-.1-.05-.22-.21-.22-.33-.02-1.77-.01-3.53-.01-5.3 0-.22.14-.38.32-.36.22.02.31.16.3.39v2.62ZM4.54 6.99c.02-.74.24-1.38.56-1.96.32-.59.7-1.15 1.06-1.71.18-.28.4-.29.6-.03a8.56 8.56 0 0 1 1.52 2.9 2.5 2.5 0 0 1-.22 1.96 1.85 1.85 0 0 1-1.88.89 1.9 1.9 0 0 1-1.58-1.6l-.06-.45Zm1.92-3.01a7.44 7.44 0 0 0-1.18 2.34c-.08.32-.1.65-.05.97.06.53.36.9.87 1.06.5.15.94.03 1.28-.36.37-.41.43-.93.32-1.45a7.07 7.07 0 0 0-1.24-2.56Z"/><path fill="#ECBC4D" d="M6.46 3.98a7.1 7.1 0 0 1 1.25 2.56c.1.52.05 1.04-.32 1.45-.35.4-.8.5-1.29.36a1.2 1.2 0 0 1-.87-1.06c-.04-.32-.03-.65.05-.97a7.4 7.4 0 0 1 1.18-2.34Z"/><path fill="#000" fill-rule="evenodd" d="M9.83 32.49a.3.3 0 0 1 .25-.15h1.67c.1 0 .2.06.25.15l.84 1.48c.05.09.05.2 0 .3L12 35.75a.3.3 0 0 1-.25.15h-1.67a.3.3 0 0 1-.25-.15l-.84-1.48a.31.31 0 0 1 0-.3l.84-1.48Zm.42.46-.66 1.17.66 1.17h1.33l.66-1.17-.66-1.17h-1.33Z" clip-rule="evenodd"/><path fill="#000" fill-rule="evenodd" d="M7.34 31a.3.3 0 0 1 .26-.16h1.66c.11 0 .2.06.26.15l.83 1.48c.06.1.06.2 0 .3l-.83 1.48a.3.3 0 0 1-.26.15H7.6a.3.3 0 0 1-.26-.15l-.83-1.48a.31.31 0 0 1 0-.3l.83-1.48Zm.43.45-.66 1.17.66 1.17H9.1l.66-1.17-.66-1.17H7.77Z" clip-rule="evenodd"/><path fill="#000" fill-rule="evenodd" d="M4.81 29.52a.3.3 0 0 1 .26-.16h1.71c.11 0 .2.06.26.16l.83 1.47c.06.1.06.22 0 .31l-.88 1.48a.3.3 0 0 1-.26.14H5.07a.3.3 0 0 1-.26-.15l-.83-1.47a.31.31 0 0 1 0-.3l.83-1.48Zm.43.45-.66 1.17.66 1.18h1.33l.7-1.18-.66-1.17H5.24Z" clip-rule="evenodd"/><path fill="#000" fill-rule="evenodd" d="M7.33 28.05a.3.3 0 0 1 .26-.15h1.67c.1 0 .2.06.25.15l.83 1.48c.06.09.06.2 0 .3l-.83 1.48a.3.3 0 0 1-.25.15H7.59a.3.3 0 0 1-.26-.15l-.83-1.48a.31.31 0 0 1 0-.3l.83-1.48Zm.43.45-.66 1.18.66 1.17h1.32l.67-1.17-.67-1.18H7.76Z" clip-rule="evenodd"/><path fill="#000" fill-rule="evenodd" d="M4.85 26.55a.3.3 0 0 1 .26-.15h1.66c.1 0 .2.06.26.15l.83 1.48c.05.1.05.2 0 .3l-.83 1.48a.3.3 0 0 1-.26.15H5.11a.3.3 0 0 1-.26-.15l-.83-1.48a.31.31 0 0 1 0-.3l.83-1.48Zm.43.46-.66 1.17.66 1.17H6.6l.66-1.17L6.6 27H5.28Z" clip-rule="evenodd"/><path fill="#000" fill-rule="evenodd" d="M2.32 25.07a.3.3 0 0 1 .26-.15h1.71c.1 0 .2.06.26.15l.83 1.48c.06.1.05.22 0 .31l-.89 1.48a.3.3 0 0 1-.25.14H2.58a.3.3 0 0 1-.26-.15l-.83-1.48a.31.31 0 0 1 0-.3l.83-1.48Zm.43.46-.66 1.17.66 1.18h1.33l.7-1.18-.66-1.17H2.75Z" clip-rule="evenodd"/></svg>