<svg xmlns="http://www.w3.org/2000/svg" fill="none" viewBox="0 0 29 36"><path fill="#000" d="M21.96 5.56c.31.23.53.45.79.56.76.34 1.54.63 2.32.95.85.36 1.65.8 2.28 1.52 1.08 1.24 1.16 2.75.98 4.26-.05.42-.5.88-.88 1.17-.33.25-.45.47-.45.87 0 4.8-.01 9.6-.04 14.4 0 2.53-1.2 4.4-3.26 5.74a6.1 6.1 0 0 1-3.4.97c-4.02-.01-8.03-.07-12.05 0a6.82 6.82 0 0 1-6.58-4.89 5.8 5.8 0 0 1-.2-1.46c-.04-5.24-.07-10.49-.09-15.73v-.63c-.08-.04-.11-.07-.14-.06-1.05.25-1.23.1-1.24-.98 0-1.36.11-2.67 1.1-3.73a6.84 6.84 0 0 1 2.5-1.56c.7-.28 1.4-.56 2.08-.87.25-.11.45-.32.74-.53-.36-.2-.63-.35-.87-.52-1.21-.86-1.41-1.87-1.13-3.1C4.62 1.06 5.87 0 7.1 0c4.8.04 9.6.01 14.4 0 1.13 0 2.42 1.16 2.55 2.28a2.8 2.8 0 0 1-1.57 3l-.52.28ZM2.67 21.48h.03c0 2.63-.02 5.26.02 7.89.01.68.12 1.42.4 2.04.86 1.99 2.35 3.22 4.6 3.24 4.34.04 8.68.01 13.02.01a4.7 4.7 0 0 0 3.34-1.44 5.44 5.44 0 0 0 1.61-4.17c0-4.4-.03-8.79.07-13.18.02-1.2-.29-1.94-1.37-2.45-.72-.33-.68-.4-1.26.13-1.05.97-2.6.68-3.22-.61-.16-.34-.27-.7-.43-1.04-.26-.61-.73-.67-1.1-.13-.43.62-.82 1.26-1.26 1.88a1.97 1.97 0 0 1-2.96.32c-.7-.61-.7-.58-1.4.06a3.3 3.3 0 0 1-1.19.73c-.74.23-1.38-.08-1.9-.62-.38-.41-.74-.4-1.15-.06-.23.18-.47.35-.72.5a1.9 1.9 0 0 1-2.6-.45c-.35-.46-.67-.95-.95-1.46-.27-.5-.65-.31-1.02-.24-.37.08-.57.24-.56.69.02 2.79 0 5.57 0 8.36Zm-1.38-9.7.67-.27c2.12-.86 2.68-.68 3.86 1.25.7 1.14.7 1.14 1.76.39l.12-.1c1.08-.72 1.94-.67 2.93.18.6.52.64.52 1.2-.07 1.04-1.12 2.06-1.17 3.2-.15.47.42.66.41 1.02-.1.46-.65.85-1.33 1.32-1.95.93-1.25 2.63-1.06 3.3.35.18.38.32.79.5 1.17.29.58.57.62 1.02.18.93-.92 1.79-1.02 2.9-.33.41.26.83.53 1.27.76.33.17.63.08.7-.32.25-1.7-.02-3.24-1.69-4.13-.38-.2-.77-.37-1.16-.53-.71-.3-1.46-.53-2.12-.9a2.95 2.95 0 0 1-1.12-1.06c-.27-.47-.55-.6-1.04-.6h-6.3c-.18 0-.44-.01-.51-.12-.15-.2-.27-.49-.24-.72.04-.3.3-.43.65-.43 2.67-.01 5.33-.02 8-.06.8-.01 1.28-.56 1.31-1.4.03-.84-.47-1.43-1.28-1.5a11.8 11.8 0 0 0-1.03-.05c-3.65-.01-7.3-.01-10.96 0-.94-.02-1.88.02-2.82.1-.36.05-.69.23-.92.52-.56.75-.27 2.33 1.09 2.35l2.25.06c.41 0 .71.16.74.6.03.38-.27.63-.76.65-.38 0-.75-.02-1.13.01-.13.02-.34.12-.37.23a2.48 2.48 0 0 1-1.42 1.47c-.6.29-1.23.49-1.83.78-.7.32-1.4.64-2.03 1.07-.87.6-1.09 1.54-1.08 2.66Z"/><path fill="#ECBC4D" d="M2.67 21.48c0-2.79.02-5.57-.01-8.36 0-.45.2-.61.57-.69.36-.07.75-.25 1.02.24.28.51.6 1 .95 1.47.65.84 1.69 1 2.6.44.25-.15.49-.31.71-.5.41-.33.77-.35 1.16.06.52.54 1.16.85 1.9.62.44-.15.84-.4 1.18-.73.7-.64.72-.67 1.41-.06.92.8 2.26.67 2.96-.32.43-.61.83-1.25 1.25-1.87.38-.54.84-.49 1.11.12.15.34.27.7.43 1.04a1.99 1.99 0 0 0 3.21.62c.59-.54.56-.47 1.28-.13 1.08.51 1.39 1.25 1.36 2.44-.1 4.4-.06 8.79-.07 13.18 0 1.6-.41 3.03-1.6 4.17a4.7 4.7 0 0 1-3.35 1.45c-4.34 0-8.68.02-13.02-.01-2.25-.02-3.74-1.26-4.6-3.25a5.44 5.44 0 0 1-.4-2.04c-.04-2.63-.01-5.26-.01-7.89h-.04ZM17.8 32.56c.22-.04.32-.04.42-.07l3.26-.89a.77.77 0 0 0 .61-.6c.29-1.11.6-2.2.86-3.32a1.02 1.02 0 0 0-.2-.78c-.6-.7-1.25-1.36-1.9-2-.24-.25-.29-.46-.2-.77.26-.87.5-1.75.7-2.62.05-.2 0-.54-.14-.68a64.69 64.69 0 0 0-2.57-2.57.86.86 0 0 0-.69-.18c-1.12.27-2.24.57-3.35.92a1.08 1.08 0 0 0-.6.6c-.29.85-.53 1.73-.75 2.6-.1.38-.3.54-.64.62-.84.21-1.69.43-2.51.7-.25.07-.55.3-.62.52-.35 1.14-.65 2.3-.92 3.46a.94.94 0 0 0 .2.73c.78.84 1.58 1.66 2.42 2.43.18.17.56.26.82.21.88-.18 1.75-.43 2.62-.67.33-.1.56-.07.82.2.6.64 1.23 1.24 1.86 1.84.15.12.32.23.5.32Zm2.9-15.87c.36-.05.61-.24.6-.63 0-.38-.24-.6-.61-.64-.3-.03-.69.37-.65.67.05.37.28.57.67.6Zm-8.77-.48a.61.61 0 0 0-.64.63c.02.39.25.6.61.6.37.01.6-.2.63-.57a.61.61 0 0 0-.6-.66Zm-4.08 2.23c-.3 0-.55.21-.54.6.01.38.25.6.62.64.31.04.67-.34.65-.66-.04-.39-.27-.58-.73-.58ZM5.22 20.6c-.38.04-.62.2-.62.6a.61.61 0 0 0 .65.64c.4-.02.57-.3.59-.65.01-.39-.25-.56-.62-.59Zm19.3-5.75c0-.39-.31-.73-.64-.71-.37.02-.6.26-.6.63 0 .36.19.61.6.61.37 0 .6-.18.64-.53ZM9.06 16.16c0-.47-.22-.68-.58-.74-.3-.05-.69.33-.66.65.03.36.24.62.62.62.37 0 .6-.22.62-.53Zm8.57-.08c-.55.04-.79.26-.79.62a.6.6 0 0 0 .6.64c.31.03.74-.36.65-.63-.09-.27-.34-.47-.46-.63ZM5.85 17.26c-.05-.32-.27-.52-.64-.53a.63.63 0 0 0-.6.68c.03.35.26.55.6.56.36.02.65-.31.64-.71Zm16.8.76c-.36-.01-.68.27-.67.6 0 .37.22.6.6.64.33.03.69-.3.67-.63-.03-.38-.27-.56-.6-.61Zm-16.1 7.67c.04.36.19.63.57.67.33.03.68-.3.68-.63 0-.4-.25-.6-.61-.61-.36-.02-.6.2-.64.57Zm.58 6.47a.63.63 0 0 0-.66-.65c-.4.03-.58.3-.58.66 0 .4.27.57.64.58.41.02.58-.24.6-.59Zm3.23.08c.01-.39-.3-.75-.62-.73-.36.03-.6.25-.62.62 0 .38.23.6.6.63.37.02.6-.19.64-.52Zm8.35-17.48c.38 0 .66-.27.68-.6 0-.34-.32-.68-.66-.64-.37.03-.58.26-.58.63 0 .4.24.57.56.61Zm-5.1 2.75c.16.12.36.37.62.45.3.1.66-.3.64-.63-.02-.37-.25-.59-.63-.6-.39 0-.57.24-.64.78Zm-6.27 4.67c0 .4.27.7.59.7.32 0 .7-.34.66-.65-.04-.37-.26-.6-.64-.6-.37 0-.57.23-.6.55Zm-2.12 2.87c.37-.05.63-.2.63-.6a.63.63 0 0 0-.65-.64c-.37.04-.59.25-.58.64.01.38.24.57.6.6Zm1.27 3.89c-.03-.38-.23-.6-.6-.63a.63.63 0 0 0-.64.64.6.6 0 0 0 .63.6c.38 0 .57-.24.61-.61Zm4.09-8.92c.4 0 .73-.31.7-.64-.05-.36-.27-.6-.64-.6-.37.02-.6.25-.6.62-.01.38.2.6.54.62Z"/><path fill="#000" d="M17.8 32.56c-.19-.1-.36-.2-.51-.33-.63-.6-1.27-1.2-1.86-1.83-.26-.27-.5-.3-.82-.2-.87.24-1.74.48-2.62.66-.26.06-.64-.03-.82-.2-.84-.78-1.64-1.6-2.42-2.44a.93.93 0 0 1-.2-.72 56 56 0 0 1 .92-3.45c.07-.23.37-.45.61-.53.83-.27 1.67-.48 2.52-.7.34-.08.55-.24.64-.6.22-.88.46-1.76.75-2.61a1.08 1.08 0 0 1 .6-.6c1.1-.35 2.22-.66 3.35-.93a.86.86 0 0 1 .68.18c.88.84 1.74 1.7 2.57 2.57.14.15.2.47.15.68-.2.88-.44 1.76-.7 2.62-.09.32-.05.53.2.77.65.65 1.3 1.31 1.9 2.01a1.02 1.02 0 0 1 .2.77c-.26 1.12-.58 2.22-.86 3.32a.77.77 0 0 1-.62.6l-3.25.9-.42.06Zm2.25-11.03a1.6 1.6 0 0 0-.18-.27c-.54-.52-1.06-1.07-1.62-1.55a.98.98 0 0 0-.73-.2c-.68.14-1.36.32-2.02.55a.83.83 0 0 0-.46.46c-.23.71-.42 1.44-.58 2.17a.67.67 0 0 0 .13.53c.51.55 1.04 1.08 1.6 1.59a.68.68 0 0 0 .53.14c.74-.18 1.48-.4 2.21-.6.14-.05.33-.13.36-.23.27-.85.5-1.7.76-2.59Zm-1.93 9.69c.91-.26 1.77-.49 2.61-.76.12-.03.22-.24.27-.39.2-.68.4-1.37.54-2.07a.88.88 0 0 0-.17-.67c-.48-.55-1-1.07-1.54-1.56a.67.67 0 0 0-.53-.14c-.73.18-1.45.38-2.16.61a.76.76 0 0 0-.42.43c-.24.7-.43 1.43-.6 2.16a.68.68 0 0 0 .11.54c.52.57 1.06 1.11 1.6 1.66.09.07.19.14.3.19Zm-6.15-1.62c.9-.25 1.74-.48 2.57-.73.1-.04.2-.23.24-.36.22-.74.44-1.47.62-2.22a.67.67 0 0 0-.14-.53 27.5 27.5 0 0 0-1.6-1.58.75.75 0 0 0-.58-.16c-.72.16-1.42.36-2.12.59a.82.82 0 0 0-.46.45c-.22.7-.41 1.4-.57 2.12a.8.8 0 0 0 .17.61c.49.55 1.03 1.06 1.54 1.57.1.1.2.17.32.24Zm8.73-12.91c-.39-.03-.62-.23-.67-.6-.03-.3.36-.7.65-.67.37.04.6.27.62.64.01.37-.25.58-.6.63Zm-8.78-.49a.62.62 0 0 1 .61.67c-.03.38-.25.58-.63.57-.38 0-.6-.21-.62-.6a.61.61 0 0 1 .64-.63Zm-4.08 2.24c.46 0 .7.2.72.58.02.32-.34.7-.65.66-.37-.04-.6-.28-.62-.64a.55.55 0 0 1 .55-.6ZM5.22 20.6c.37.03.63.2.61.6-.01.34-.2.62-.58.64a.61.61 0 0 1-.65-.63c0-.4.24-.57.62-.6Zm19.3-5.75c-.04.35-.27.54-.64.54-.41 0-.6-.26-.6-.62 0-.35.23-.6.6-.63.33-.02.64.33.64.71ZM9.06 16.16c-.02.31-.25.53-.62.53s-.59-.26-.61-.62c-.03-.32.35-.7.65-.65.36.06.58.27.58.74Zm8.57-.08c.12.16.37.36.46.63.1.27-.34.66-.65.63a.6.6 0 0 1-.6-.64c0-.36.24-.58.8-.62ZM5.85 17.26c.01.4-.3.73-.64.72-.33-.02-.57-.22-.61-.57a.63.63 0 0 1 .6-.67c.38 0 .6.2.65.52Zm16.8.76c.33.05.57.23.6.61.01.33-.34.66-.68.63-.38-.04-.59-.27-.6-.64 0-.33.32-.61.68-.6ZM6.54 25.7c.04-.38.27-.6.64-.58.37.02.61.22.61.6 0 .34-.34.67-.67.64-.4-.04-.54-.3-.58-.67Zm.58 6.46c-.02.35-.19.6-.6.6-.37-.02-.64-.2-.64-.59 0-.35.18-.63.58-.66a.63.63 0 0 1 .66.65Zm3.23.08c-.04.33-.26.54-.64.52-.37-.03-.6-.25-.6-.63.01-.38.26-.59.62-.62.32-.02.63.34.62.73Zm8.35-17.48c-.32-.04-.57-.2-.56-.6 0-.38.21-.6.58-.64.34-.04.67.3.66.64-.01.33-.3.6-.68.6Zm-5.1 2.75c.06-.54.24-.78.63-.77.38 0 .6.22.63.6.02.33-.34.72-.64.62-.26-.08-.46-.33-.63-.45Zm-6.27 4.67c.04-.32.24-.56.62-.56s.6.24.63.6c.04.31-.33.66-.66.66-.32 0-.59-.3-.59-.7Zm-2.12 2.87c-.36-.03-.59-.21-.6-.6-.01-.39.21-.6.58-.63a.63.63 0 0 1 .65.63c0 .4-.26.55-.63.6Zm1.27 3.89c-.04.37-.23.61-.61.6a.6.6 0 0 1-.64-.59.62.62 0 0 1 .65-.64c.37.03.58.25.6.63Zm4.09-8.92c-.33-.03-.55-.23-.54-.61 0-.39.24-.62.6-.62s.6.24.63.6c.04.32-.3.63-.7.63Z"/></svg>