<svg xmlns="http://www.w3.org/2000/svg" fill="none" viewBox="0 0 29 36"><path fill="#000" d="M14.44 0c2.84.05 5.62.29 8.3 1.2 1 .34 1.94.83 2.69 1.58.4.41.69.98.92 1.52a32.26 32.26 0 0 1 2.1 7.84c.4 2.6.53 5.23.4 7.86A36 36 0 0 1 27 30.13c-.26.77-.66 1.49-1.04 2.21-.8 1.55-2.26 2.2-3.82 2.66-3.1.91-6.29 1.11-9.5.95-2.21-.12-4.4-.44-6.51-1.15a5.82 5.82 0 0 1-3.7-3.38 29.73 29.73 0 0 1-2.09-7.98 39.84 39.84 0 0 1 2-18.73 5.58 5.58 0 0 1 3.63-3.43C8.72.28 11.58.05 14.44 0ZM.7 16.76c0 .83.02 1.58 0 2.32-.02.43.15.72.45 1a10.33 10.33 0 0 0 3.92 2.03 29.4 29.4 0 0 0 7.46 1.24c3.83.18 7.62-.11 11.3-1.24a9.69 9.69 0 0 0 3.94-2.08c.16-.15.38-.36.38-.55.04-.88.02-1.76.02-2.66a.73.73 0 0 0-.17.06c-1.76 1.38-3.83 2.05-5.97 2.52a35.52 35.52 0 0 1-12.42.48c-3.13-.41-6.2-1.08-8.9-3.12ZM25.76 4.49l-.15.01a4.02 4.02 0 0 1-1.98 1.62 17.1 17.1 0 0 1-4.9 1.28 30 30 0 0 1-8.57-.01c-2.53-.39-5.13-.7-7-2.91-.27.78-.51 1.53-.8 2.27-.17.42-.07.71.25 1 .97.9 2.15 1.39 3.38 1.76 3.55 1.05 7.2 1.26 10.88 1.22 2.17-.02 4.32-.24 6.4-.9a7.41 7.41 0 0 0 3.2-1.78c.13-.15.3-.43.25-.59-.29-1-.64-1.98-.96-2.97Zm-1.19.35c-.24-.18-.36-.31-.5-.37-.84-.36-1.66-.8-2.53-1.04-3.01-.85-6.1-.96-9.2-.79a20.5 20.5 0 0 0-5.92 1.08c-.7.25-1.34.62-2.13 1 .3.21.45.36.62.43.88.36 1.73.8 2.64 1.03 3.2.85 6.47.98 9.76.7a19.2 19.2 0 0 0 5.5-1.16c.57-.24 1.11-.55 1.76-.88ZM3.07 31.12l.1.25c.67 1.65 2 2.47 3.63 2.93a29.25 29.25 0 0 0 13.5.46c1.34-.25 2.66-.61 3.83-1.37a4.64 4.64 0 0 0 1.69-2.26 38.94 38.94 0 0 1-22.74 0ZM5.64 10.2c-.04.33-.1.64-.12.95-.16 2.24-.3 4.48-.44 6.72 0 .14.12.4.22.42 1.37.34 2.74.65 4.13.97l.22-8.2-4-.86Zm17.81.41-4.17.76.2 7.86c1.14-.24 2.24-.45 3.34-.71 1.03-.25 1.06-.28 1.01-1.32-.1-2.19-.25-4.38-.38-6.59ZM5.35 23v.43c.39 2.36.8 4.71 1.16 7.08.11.74.47 1.03 1.2 1.1.86.06 1.72.2 2.57.32l.05-.12c-.23-2.57-.46-5.14-.71-7.7a.54.54 0 0 0-.35-.36C8 23.48 6.7 23.25 5.35 23Zm18.25-.04-4.25.87-.73 8.13c1.1-.17 2.2-.33 3.28-.53.14-.03.3-.26.33-.43.32-1.48.65-2.95.91-4.44.2-1.18.31-2.38.46-3.6Zm-9.52-3.4v-8.14l-3.7-.3c-.03.45-.06.88-.07 1.3-.06 2.17-.1 4.33-.14 6.5 0 .12.15.36.25.37 1.2.1 2.42.17 3.66.26Zm.74-8.14v8.13c1.17-.08 2.31-.17 3.45-.22.37-.02.49-.14.48-.5l-.12-5.9c-.01-.5-.07-1.01-.1-1.51h-3.71Zm-8.86 19.8c0-.1-.02-.22-.04-.33a45.39 45.39 0 0 1-1.27-7.82c-.03-.3-.14-.42-.4-.54-.84-.36-1.67-.74-2.49-1.15-.33-.16-.62-.42-.99-.67.21 3.11.7 6.09 1.7 8.96.06.16.22.3.37.38.94.6 2 .88 3.12 1.17Zm22.17-10.55a12.21 12.21 0 0 1-3.6 1.94c-.13.05-.25.29-.27.45-.28 1.9-.51 3.8-.8 5.68-.12.81-.34 1.61-.53 2.48a10.6 10.6 0 0 0 3.2-1.2.98.98 0 0 0 .32-.43 34.04 34.04 0 0 0 1.68-8.92Zm-10.3 11.32c.42-2.68.66-5.39.75-8.1l-3.75.23v8l3-.13Zm-3.75.13v-8l-3.85-.22.75 8.09 3.1.13ZM1.95 8.3a40.94 40.94 0 0 0-1.17 7.16.75.75 0 0 0 .23.56c.57.46 1.16.88 1.78 1.27.47.28 1 .46 1.45.65l.69-7.76c0-.13-.14-.31-.26-.39-.89-.5-1.8-.98-2.72-1.49ZM24.47 18a8.5 8.5 0 0 0 3.47-2.04.8.8 0 0 0 .17-.58c-.24-1.84-.5-3.69-.78-5.53-.07-.43-.2-.84-.28-1.18-.88.5-1.69 1.02-2.55 1.42-.43.2-.5.4-.45.82.16 1.62.3 3.24.4 4.87.06.7.02 1.42.02 2.22ZM3.9 4.12C4.77 3.73 5.58 3.3 6.44 3a21.7 21.7 0 0 1 5.82-1.03c2.77-.17 5.52-.06 8.25.5 1.56.32 3.08.78 4.41 1.73.19-.48.16-.85-.3-1.16-.7-.47-1.43-.92-2.21-1.2-1.89-.7-3.87-.95-5.87-1.07a27.5 27.5 0 0 0-9.69.93c-.94.29-1.86.64-2.59 1.34-.33.3-.53.67-.35 1.08Z"/><path fill="#ECBC4D" d="M24.57 4.84c-.65.33-1.2.64-1.77.87-1.76.7-3.61 1-5.5 1.16-3.28.28-6.55.16-9.75-.7-.9-.23-1.76-.67-2.64-1.03-.17-.07-.32-.21-.62-.43.79-.37 1.43-.74 2.12-1 1.91-.7 3.91-.96 5.92-1.07a28 28 0 0 1 9.21.79c.87.24 1.7.67 2.53 1.03.14.07.26.2.5.38Z"/></svg>