<svg xmlns="http://www.w3.org/2000/svg" fill="none" viewBox="0 0 30 31"><path fill="#000" d="M11.03 13.1c-.23-.08-.5-.2-.78-.27-1.1-.3-2.07.23-2.3 1.27-.23.64.35 1.63.43 1.86.13.37-.17-.17-.57.07a6.45 6.45 0 0 1-.26-.44 2.45 2.45 0 0 1 .24-2.64c.63-.74 1.78-1.08 2.65-.72.58.23 1.16.49 1.66.86.51.38.93.89 1.37 1.37.17.19.27.28.53.12a1.42 1.42 0 0 1 1.57-.02c.27.17.4.09.56-.13a6.07 6.07 0 0 1 2.76-2.14c1.33-.47 2.68-.03 3.23 1.18.3.69.25 1.38-.04 2.06l-.15.4.44.03h5.8c.49 0 .88.15 1.08.63.05.14.07.28.06.42v2.45c0 .68-.38 1.06-1.05 1.09-.47.02-.47.02-.47.47v8c0 .27-.07.52-.18.76-.2.39-.58.5-1.01.5H3.04c-.84 0-1.26-.41-1.26-1.26V21c0-.45 0-.45-.43-.46-.7-.03-1.07-.4-1.08-1.1-.02-.8-.01-1.6 0-2.39 0-.72.38-1.1 1.1-1.1h6c.31 0 .34.06.3.6-.06 0-.16 0-.17-.03-.16-.29-.38-.21-.6-.1-.43.24-.88.17-1.34.12-.25-.03-.5.04-.74.04H1.84c-.94 0-.94 0-.94.93v1.86c0 .4.13.53.54.53H12.9c.25 0 .36-.07.36-.33v-2.65c0-.27-.11-.34-.36-.34H6.27c.02-.6.33-.64.85-.64h5.71c.4 0 .6-.35.41-.71l-.08-.14a14.14 14.14 0 0 0-2.13-2m3.78 7.44H2.9c-.46 0-.47.01-.47.46v7.91c0 .62.12.74.73.74h23.27c.6 0 .74-.15.74-.75v-7.8c0-.55 0-.56-.54-.56H14.8Zm7.63-.63h5.66c.47 0 .57-.1.57-.56v-2.18c0-.48-.09-.57-.55-.58H16.8c-.45 0-.47.02-.47.46v2.41c0 .43.02.45.45.45h5.66Zm-3.74-3.95 2.05-.01c.12 0 .28-.03.36-.11.5-.46.7-1.43.44-2.06-.34-.82-1.27-1.23-2.25-.95a5.55 5.55 0 0 0-2.96 2.42c-.23.33.01.7.4.7l1.96.01Zm-4.8 2.31v1.32c0 .23.08.33.3.32h1.2c.23 0 .3-.1.3-.32V16.9c0-.22-.09-.32-.3-.32h-1.16c-.26 0-.35.12-.34.36v1.32Zm.88-2.32h.63c.22 0 .3-.1.24-.31a.92.92 0 0 0-.88-.66c-.4.01-.8.35-.84.71 0 .08.12.24.2.25.21.04.43.01.65.01Zm12.1-1.69c-.1-.07-.26-.13-.26-.21a.56.56 0 0 1 .1-.41c.4-.44.84-.85 1.26-1.27l.4-.4c.15-.14.36-.2.49-.02.07.1.05.36-.04.46-.54.57-1.1 1.13-1.67 1.69-.07.06-.17.1-.28.16ZM17.91 9.8c-.06.1-.1.2-.17.27l-1.3 1.31c-.15.15-.33.26-.51.07s-.09-.38.08-.54c.42-.42.83-.85 1.26-1.25a.58.58 0 0 1 .4-.12c.09 0 .16.15.24.25ZM2.6 13.94c-.07.08-.14.24-.21.24-.15 0-.34-.03-.45-.13-.33-.3-.63-.63-.95-.95-.1-.11-.25-.2-.31-.34-.05-.11-.06-.32.01-.4.07-.07.32-.1.39-.05.49.46.95.94 1.42 1.41.05.05.06.12.1.22Zm9.34-4.08c-.06.07-.1.2-.19.23-.1.04-.27.04-.33-.02a26.9 26.9 0 0 1-1.34-1.35c-.06-.06-.04-.3.03-.36.09-.08.33-.12.4-.05.46.43.9.89 1.34 1.34.04.04.05.12.1.2Zm.17-9.25c.12.07.21.1.28.16l.89.89c.14.14.2.33.02.44-.11.08-.36.08-.46 0a9.7 9.7 0 0 1-.93-.93.38.38 0 0 1-.05-.32c.03-.1.16-.15.25-.24Zm3.51 1.6c-.25-.01-.42-.28-.27-.44A12 12 0 0 1 16.42.7c.05-.06.26-.03.32.03.08.08.14.29.1.34-.36.39-.74.75-1.11 1.12-.03.02-.09.02-.1.02ZM12.11 5.7c-.07-.04-.2-.08-.23-.16-.04-.09-.05-.26 0-.32.33-.36.67-.7 1.02-1.02.07-.06.3-.04.38.03.08.07.12.3.06.37-.33.36-.68.7-1.04 1.04-.03.04-.1.04-.19.06Zm4.78-.28c-.06.07-.1.2-.19.23-.1.03-.27.04-.33-.03a11.8 11.8 0 0 1-1-1c-.06-.07-.04-.29.03-.37.05-.08.28-.12.34-.07.38.34.73.71 1.1 1.08.02.03.02.08.05.16Zm9.21-.7c-.05.1-.07.2-.13.25-.18.2-.35.4-.56.55-.1.07-.35.08-.42 0-.07-.06-.09-.32-.02-.41.17-.23.38-.43.6-.6.07-.06.23-.06.33-.02.08.03.13.14.2.23ZM4.26 7.08c0 .28-.28.42-.48.26a3.35 3.35 0 0 1-.63-.62c-.06-.09-.04-.32.04-.4.07-.07.3-.07.4 0 .22.16.4.38.6.59.04.05.06.1.07.17ZM22.6 8.2c-.08-.05-.2-.1-.22-.17-.03-.11-.04-.28.02-.36.18-.23.38-.43.61-.6.1-.06.33-.05.4.03.09.07.08.3.02.4-.17.22-.4.4-.6.6-.05.05-.14.06-.23.1ZM6.83 6.52c-.04.1-.05.18-.1.23-.2.2-.38.43-.61.59-.09.06-.32.04-.4-.04-.07-.07-.07-.3 0-.39.17-.23.37-.43.59-.6.08-.07.25-.07.35-.03.08.02.12.16.17.24ZM3.05 9.65l.14-.24c.17-.19.33-.4.54-.53.1-.07.33-.07.43 0 .07.05.09.32.02.4-.18.24-.4.44-.63.62-.07.06-.23.05-.33.01-.08-.04-.11-.16-.17-.26Zm3.75.01c0 .21-.2.4-.36.28-.3-.22-.56-.47-.79-.76-.12-.15.06-.38.27-.4.23 0 .9.64.89.88ZM25.21 7c.08.02.16.06.22.1.18.16.38.32.51.52.08.12.1.35.03.46-.1.18-.3.13-.45 0-.2-.19-.4-.39-.57-.6-.16-.2-.02-.48.26-.49Zm-1.69-1.7c0 .23-.26.42-.42.3-.27-.21-.5-.45-.73-.71-.05-.07-.01-.26.06-.35.05-.07.25-.11.3-.07.26.22.5.46.74.7.04.04.04.1.05.13Z"/><path fill="#ECBC4D" d="M14.81 20.54h11.82c.54 0 .54 0 .54.56v7.8c0 .6-.15.75-.74.75H3.17c-.62 0-.74-.12-.74-.74v-7.9c0-.46 0-.47.47-.47h11.9Zm-.91-2.27v-1.32c-.01-.25.07-.37.33-.36h1.16c.22 0 .31.1.31.32v2.67c0 .22-.08.33-.3.33h-1.2c-.22 0-.31-.1-.3-.32v-1.32Z"/></svg>