<svg xmlns="http://www.w3.org/2000/svg" fill="none" viewBox="0 0 37 36"><path fill="#000" d="M16.28 13.7c-.23 1.02-.97 1.51-1.82 1.9-1.1.52-2.28.74-3.48.83-1.8.14-3.57.02-5.29-.57a6.73 6.73 0 0 1-1-.43c-.86-.46-1.14-.8-1.48-1.73-.88.38-1.72.8-2.28 1.61-.45.66-.37 1.4.26 2.02.36.35.8.6 1.2.9.19.13.5.21.33.53-.18.34-.45.14-.66.01-.46-.3-.9-.6-1.4-.95v.49L.65 31.45A2.03 2.03 0 0 0 1.31 33a7.18 7.18 0 0 0 3.06 1.6 19 19 0 0 0 8.14.56c1.04-.14 2.06-.44 3.08-.68.23-.05.45-.12.55.15.1.3-.13.42-.36.47-1.07.24-2.12.55-3.2.7-2.75.37-5.48.24-8.16-.51a9.16 9.16 0 0 1-3.1-1.44A3.04 3.04 0 0 1 0 31.22c.04-4.9.04-9.79 0-14.68a2.8 2.8 0 0 1 1.24-2.45c.54-.38 1.14-.67 1.72-.97.22-.11.33-.22.3-.45a.9.9 0 0 1 0-.2c.06-.54-.04-.97-.52-1.33-.48-.36-.66-.9-.64-1.51.02-.8.05-1.6 0-2.4-.08-1.05.41-1.76 1.25-2.27.32-.2.45-.43.43-.82-.52-.05-.94.16-1.3.52-.16.17-.33.32-.54.13-.23-.22-.07-.43.1-.6a2.34 2.34 0 0 1 1.8-.7c.14 0 .33-.03.43-.12.94-.9 1.46-.91 2.48 0 .15-.2.3-.39.43-.6A5.3 5.3 0 0 1 9.41.83c.1-.06.27.06.42.1-.05.15-.05.35-.16.43-.4.32-.84.59-1.24.9-.22.19-.41.4-.57.63-.27.38-.2.61.25.7.43.1.88.15 1.32.14a6.65 6.65 0 0 0 2.75-.64c.32-.16.62-.37.88-.63a1 1 0 0 0 .23-1.12c-.15-.4-.45-.68-.87-.69-.48 0-.96.08-1.43.16-.23.04-.46.11-.55-.16-.11-.3.14-.42.37-.46.53-.08 1.07-.22 1.59-.18 1.23.1 1.9 1.22 1.46 2.38l-.09.23.55.15c.39.15.8.27 1.16.46.79.41.93.82.65 1.65 0 .02.01.06.03.07.95.6 1.35 1.46 1.25 2.58-.06.67-.03 1.35 0 2.03a2.03 2.03 0 0 1-.82 1.76c-.29.22-.33.46-.37.79-.07.63.1 1.02.76 1.22.4.12.77.4 1.12.64a3 3 0 0 1 1.4 2.7c-.04 4.92-.03 9.84 0 14.75 0 1.3-.71 2.11-1.71 2.75-.1.07-.33-.04-.5-.06.06-.16.08-.36.18-.46.24-.25.55-.44.8-.69a1.9 1.9 0 0 0 .58-1.38V18.12l-.03-.3c-.35.25-.65.52-.99.73-1.33.84-2.8 1.26-4.33 1.52a21.4 21.4 0 0 1-8.73-.27c-.07-.01-.16 0-.2-.05-.1-.13-.18-.27-.27-.42.15-.06.3-.2.43-.17.62.1 1.22.27 1.83.35 3.34.45 6.64.36 9.8-.93a6.8 6.8 0 0 0 1.87-1.18c.84-.74.81-1.65.04-2.45a5.75 5.75 0 0 0-2-1.25ZM2.74 8.25c0 .5.02.91 0 1.32-.03.52.15.97.57 1.23.62.4 1.26.8 1.95 1.03 2.14.73 4.34.82 6.57.55a9.57 9.57 0 0 0 3.81-1.16c1.1-.65 1.46-1.66 1.06-2.91l-.7.49c-.18.12-.39.18-.53-.04-.14-.23 0-.37.18-.5.28-.19.54-.4.78-.64.32-.35.49-.8.21-1.23-.24-.37-.62-.65-.94-.97a.25.25 0 0 0-.23-.03l-1.83.8c.06.35.16.7.2 1.05.01.21-.04.47-.34.45-.28 0-.31-.21-.3-.46.02-.5-.18-.82-.57-.84-.38-.03-.76.03-1.1.05-.04.38-.04.7-.1 1.02-.06.25-.37.34-.5.16-.09-.1-.1-.3-.08-.44.07-.55-.02-.72-.53-.91-.14-.05-.3-.1-.4-.19-.3-.3-.58-.24-.76-.1-.06.56-.08 1-.16 1.45-.03.1-.27.17-.42.25-.06-.14-.16-.29-.16-.44 0-.2.1-.42.08-.63-.02-.23-.07-.53-.4-.5a1.83 1.83 0 0 1-1.44-.48c-.4.57-.87.95-1.48 1.16-.8.28-1.21.05-1.42-.79l-.1-.43c-1.06.52-1.22 1.5-.39 2.26.21.19.44.39.7.49.75.3 1.52.6 2.3.85.37.12.78.13 1.15.24.12.04.19.24.28.36-.12.09-.24.2-.37.23-.16.02-.33-.03-.48-.06a8.64 8.64 0 0 1-4.12-1.7Zm1.16 3.8c0 .45.02.86 0 1.28-.04.53.15.96.6 1.2.6.34 1.23.68 1.89.87 1.9.55 3.84.57 5.78.23a6.15 6.15 0 0 0 2.77-1.05c.26-.2.56-.49.6-.77.1-.57.03-1.17.03-1.75a15.99 15.99 0 0 1-11.67-.01Zm.4-6.75c.03.24.09.48.16.72a.42.42 0 0 0 .35.2 1.83 1.83 0 0 0 1.43-2.25c-.2-.66-.77-.84-1.28-.39-.48.43-.63 1-.66 1.72Zm2.88-1.52c-.37.35-.32.77-.21 1.14.1.36.43.54.82.55.32 0 .64 0 .96-.03.57-.07.9-.5.79-1.05-.83-.03-1.68.03-2.36-.61Zm5.3 1.88c.96.09 1.52-.36 1.47-1.2a1.8 1.8 0 0 0-.12-.5c-.26-.72-.47-.8-1.1-.42-.05.03-.12.04-.15.08a.44.44 0 0 0-.1.23v1.81ZM11.82 4a.4.4 0 0 0-.1-.01c-.23.05-.45.14-.67.16-.52.06-.95.17-.88.83a.3.3 0 0 1-.05.16c-.13.2-.07.36.13.41.39.1.78.19 1.18.25a.3.3 0 0 0 .22-.14c.3-.53.39-1.08.17-1.66Zm2.6-.56.2 1.72c.28-.19.57-.37.84-.58.24-.19.25-.43-.01-.6-.33-.2-.67-.36-1.02-.55Z"/><path fill="#000" d="M18.25 25.9v5.52c0 .34-.12.54-.4.72a11.8 11.8 0 0 1-4.4 1.57c-3.03.51-6.05.45-9.03-.38a8.9 8.9 0 0 1-2.83-1.26.84.84 0 0 1-.32-.6c-.02-3.73-.01-7.46-.01-11.18 0-.45.21-.61.53-.4a11.6 11.6 0 0 0 4.83 1.65c2.9.42 5.8.33 8.62-.56.81-.25 1.56-.7 2.35-1.06.15-.07.36-.15.47-.1.1.06.18.29.18.44v5.64ZM1.92 20.83a.26.26 0 0 0-.02.08V31.3a.54.54 0 0 0 .26.4c.6.3 1.2.62 1.84.83 2.66.9 5.4 1.04 8.17.73 1.76-.2 3.48-.6 5.06-1.48.28-.15.39-.33.39-.66-.02-3.33-.01-6.65-.01-9.97l-.02-.35a19.75 19.75 0 0 1-15.67.04Zm27.18-.78h-3c-.27 0-.41.09-.54.32-.57 1.04-1.17 2.07-1.75 3.1-.05.08-.08.2-.15.24-.15.07-.3.14-.47.19-.03-.17-.13-.37-.07-.5.35-.68.75-1.34 1.13-2 .24-.43.5-.84.7-1.28a.68.68 0 0 0 0-.54c-.6-1.08-1.24-2.15-1.87-3.22-.05-.1-.15-.19-.15-.28-.01-.17-.03-.4.07-.49.2-.17.36 0 .48.18l.78 1.33c.38.64.74 1.29 1.13 1.91a.65.65 0 0 0 .47.28c2.04 0 4.08-.01 6.12-.05a.56.56 0 0 0 .4-.23 414.6 414.6 0 0 0 3.07-5.4.5.5 0 0 0 0-.39c-.17-.34-.4-.65-.55-.99-.05-.12.05-.32.08-.48.15.06.37.08.45.19.26.36.45.77.7 1.14.16.25.13.46-.02.7-1.02 1.79-2.02 3.58-3.05 5.36-.14.24-.14.4 0 .65l3.28 5.6c.18.3.2.53.01.85a505.29 505.29 0 0 0-3.23 5.67c-.15.26-.31.39-.63.38-1.1-.01-2.19 0-3.29.01-.22 0-.46.02-.47-.3-.02-.32.24-.33.48-.33 1-.01 2-.02 3-.01a.48.48 0 0 0 .48-.28l2.99-5.25c.13-.22.13-.39 0-.62a469.34 469.34 0 0 1-3.03-5.18c-.13-.23-.28-.31-.54-.3h-3v.02Zm-8.53-6.74c.72.25 1.1-.23 1.47-.92.88-1.65 1.84-3.25 2.75-4.87.19-.34.42-.49.83-.49a469 469 0 0 0 6.49-.04c.33 0 .52.1.68.38.56.99 1.15 1.96 1.73 2.93.12.21.24.43-.05.59-.27.14-.39-.07-.5-.26-.53-.9-1.07-1.79-1.59-2.69-.13-.22-.27-.32-.54-.31-2.01.02-4.02.04-6.04.04-.25 0-.38.1-.5.3-.95 1.7-1.91 3.4-2.9 5.08-.19.34-.2.61.02.93.13.16.23.33.3.53.03.1-.03.34-.1.37-.12.04-.3-.03-.43-.08-.05-.01-.09-.1-.1-.16-.22-.62-.67-.76-1.27-.7-.42.05-.84.05-1.25 0-.15 0-.27-.18-.4-.29.12-.1.24-.29.38-.31.28-.06.59-.03 1.02-.03Zm5.73 19.01c-.64.21-1-.17-1.33-.78-.92-1.67-1.91-3.31-2.87-4.97-.14-.23-.29-.4-.6-.36-.24.03-.5 0-.73 0-.23.01-.45-.06-.4-.32.02-.12.24-.2.38-.29.07-.03.17 0 .24 0 .6.05 1.08-.06 1.3-.73.03-.1.34-.24.46-.2.24.1.2.35.07.51-.48.55-.26 1.01.07 1.54.91 1.5 1.78 3.02 2.66 4.54.18.31.36.5.75.44.25-.04.52 0 .77-.01.23 0 .42.04.43.31 0 .27-.2.31-.42.32h-.79ZM18.33 1.06h3.04c.3 0 .47.1.62.35.38.68.78 1.35 1.18 2.03.12.2.2.4-.05.55-.26.16-.4-.05-.5-.24-.35-.57-.7-1.13-1-1.71-.15-.27-.32-.34-.61-.34l-5.63.03c-.12 0-.26.02-.36-.02-.1-.05-.23-.17-.23-.27-.01-.1.1-.24.2-.3.09-.06.23-.04.35-.05h3v-.03Zm6.27 4.66c-.2.16-.3.3-.43.34-.17.05-.61-.5-.56-.73.02-.12.18-.21.29-.32l.7.7Z"/><path fill="#ECBC4D" d="M3.9 12.05a16.01 16.01 0 0 0 11.68 0c0 .6.06 1.19-.03 1.76-.05.28-.35.58-.6.77a6.2 6.2 0 0 1-2.78 1.06c-1.94.33-3.88.32-5.78-.24a9.29 9.29 0 0 1-1.9-.87c-.43-.24-.63-.67-.6-1.2.03-.42 0-.84 0-1.28Zm3.28-8.27c.68.64 1.53.58 2.36.6.1.57-.21.99-.79 1.06-.32.03-.64.04-.96.03-.39-.01-.72-.19-.82-.55-.11-.37-.16-.8.21-1.14Zm5.29 1.88V3.85a.44.44 0 0 1 .11-.23c.03-.04.1-.05.14-.08.64-.37.85-.3 1.11.4.07.17.1.34.12.52.05.84-.51 1.28-1.48 1.2ZM11.83 4c.22.57.13 1.12-.17 1.65a.3.3 0 0 1-.22.13c-.4-.06-.79-.14-1.18-.24-.2-.05-.26-.22-.13-.42.03-.04.05-.1.05-.15-.07-.66.37-.78.88-.83.22-.03.44-.11.67-.16a.4.4 0 0 1 .1.01Zm2.61-.58c.35.2.7.35 1.02.56.26.16.26.4.02.6-.27.2-.57.38-.86.57l-.18-1.73ZM1.92 20.83a19.75 19.75 0 0 0 15.67-.04l.02.35v9.97c0 .33-.1.5-.38.66a13.3 13.3 0 0 1-5.06 1.48c-2.77.3-5.5.17-8.17-.73-.63-.21-1.23-.53-1.84-.84a.54.54 0 0 1-.26-.4V20.92c0-.02 0-.05.02-.08Zm6.2 8.65v2.34c0 .36.14.5.5.5.68-.02 1.35 0 2.03 0 .7 0 .71-.02.71-.7v-2.14h2.36c.34 0 .49-.14.48-.49v-2.3c0-.3-.12-.44-.4-.44h-1.47c-.3 0-.67.09-.85-.06-.16-.14-.06-.55-.13-.82-.04-.15-.2-.26-.31-.4-.1.14-.28.26-.3.4-.05.33 0 .67-.02 1-.01.36.13.53.5.52.67-.02 1.34 0 2.02-.02.25 0 .33.08.32.33-.01.43-.02.86 0 1.3.02.3-.1.36-.38.36-.6-.02-1.22-.01-1.82-.01-.59 0-.64.05-.64.65v2.14H8.76v-1.33c0-1.46 0-1.46-1.45-1.46H5.95v-1.94l.34-.02 1.86-.01c.57-.01.61-.06.61-.63v-2.2h2.1c.22 0 .47 0 .48-.3.01-.3-.24-.33-.49-.33H8.66c-.45 0-.53.08-.54.54v2.28l-.23.01H5.83c-.46.01-.54.1-.55.55v2.11c0 .52.07.57.6.58h2.24Z"/><path fill="#000" d="m10.36 9.62 3.15-.52c.22-.03.46-.1.53.2.07.3-.14.37-.37.43-1.38.35-2.8.46-4.22.46-.08 0-.18 0-.23-.03-.11-.08-.28-.22-.26-.3.03-.12.18-.28.3-.3.35-.03.72-.01 1.09-.01l.01.07ZM8.12 29.48H5.88c-.53 0-.6-.06-.6-.57V26.8c0-.45.09-.54.55-.55H7.9l.23-.02v-2.27c0-.47.09-.55.54-.55h2.2c.24 0 .5.03.48.34-.01.29-.27.3-.49.3h-2.1v2.2c0 .57-.04.61-.61.62l-1.86.01-.34.03v1.94h1.36c1.45 0 1.45 0 1.45 1.46v1.33h1.96V29.5c0-.6.05-.65.64-.65h1.82c.27.01.4-.06.38-.35-.02-.43-.01-.87 0-1.3 0-.24-.07-.33-.32-.33-.67.02-1.35 0-2.02.02-.37 0-.51-.15-.5-.51.01-.34-.03-.68.02-1.01.02-.14.2-.26.3-.4.1.14.27.25.3.4.08.27-.02.69.14.82.18.15.56.06.86.06h1.46c.28 0 .4.14.4.43V29c0 .35-.13.49-.48.49h-2.36v2.14c0 .68 0 .7-.7.7-.68 0-1.36-.02-2.04 0-.36 0-.5-.14-.5-.5v-2.34Z"/></svg>