<svg xmlns="http://www.w3.org/2000/svg" fill="none" viewBox="0 0 34 32"><path fill="#000" d="M9.33 8.59c.02-.84 0-1.68.02-2.53A5.81 5.81 0 0 1 15.22.52h5.21a5.82 5.82 0 0 1 5.77 5.87v6.59c0 .16.05.27.17.38l1.17 1.09a7.06 7.06 0 0 1 4.7-2.76c.12-.03.18 0 .23.12l.7 1.75c.05.1.04.17-.05.25a7.85 7.85 0 0 0-1.8 2.73c-.2.51-.31 1.04-.27 1.6.01.17.09.35.13.52.2.85.22 1.7-.14 2.52-.3.7-.85 1.13-1.55 1.41l-.1-.17c-.82 2.55-2.52 4.35-4.82 5.7h2.95v.78H13.7a.43.43 0 0 0-.35.15 5.93 5.93 0 0 1-1.86 1.37c-.21.1-.4.23-.62.3-.36.12-.73.2-1.09.32-.68.24-1.4.25-2.1.23a7.18 7.18 0 0 1-3.94-1.3 6.66 6.66 0 0 1-2.92-5.99h5.99c-.14-.3-.27-.57-.38-.85A7.9 7.9 0 0 1 6 18.57a8.85 8.85 0 0 1 2.96-5c.27-.23.4-.46.39-.83-.03-.9 0-1.8 0-2.7v-.88m.75.07v3.2l.02.24a10.88 10.88 0 0 1 7.27-3.37v-.8c-.01-.04-.08-.1-.14-.13A1.78 1.78 0 0 1 16 6.55a1.78 1.78 0 0 1 3.32-.8c.57 1.02.1 2.24-1 2.61-.06.02-.14.09-.15.14v.8l.52.04.74.11c.03.01.08.08.08.12 0 .06-.06.13-.05.2.02.15.07.3.11.47a9.51 9.51 0 0 0-4.28.17 9.45 9.45 0 0 0-3.75 2.07h12.53c-.88-.75-3.63-1.85-4.63-2.27.17-.21-.17-.56-.01-.76 2.16.42 3.65 1.3 4.25 1.75.59.44 1.15.92 1.75 1.4v-1.78c0-1.48 0-2.98-.02-4.47a5.06 5.06 0 0 0-4.97-5.07h-5.32a5.03 5.03 0 0 0-4.95 4.3c-.08.67-.05 1.35-.07 2.03l-.01.73m4.01 19.78h7.98c.26 0 .54.04.77-.05a10.34 10.34 0 0 0 4.21-3 7.37 7.37 0 0 0 1.62-6.92 8.61 8.61 0 0 0-3.2-4.53 1.64 1.64 0 0 0-1.1-.37c-2.41.02-4.83 0-7.24 0h-5.77c-.75 0-.76-.02-1.34.44a8.6 8.6 0 0 0-2.98 3.96 7.25 7.25 0 0 0 .52 6.06c.1.2.22.27.44.27h7.18a6.43 6.43 0 0 1-1.09 4.14Zm.32-3.37H1.6c0 .14-.02.25 0 .37a5.88 5.88 0 0 0 2.74 4.31 6.41 6.41 0 0 0 4.77.98 6.17 6.17 0 0 0 5.06-4.18c.16-.47.25-.96.25-1.48ZM31.9 12.48c-.52.2-1.02.35-1.5.58a6.22 6.22 0 0 0-2.27 1.87c-.09.12-.1.2 0 .33.1.11.18.25.26.38a8.15 8.15 0 0 1 1.3 5.12c-.02.3-.06.6-.1.9.26-.1.57-.41.73-.75.32-.7.27-1.42.09-2.14-.05-.2-.12-.4-.13-.6-.04-.64.07-1.24.29-1.83a8.86 8.86 0 0 1 1.64-2.7c.05-.06.1-.15.08-.2-.11-.3-.24-.6-.39-.96ZM16.76 6.65c0 .54.44 1.01.98 1.03.56.01 1.03-.43 1.05-.98a1.03 1.03 0 0 0-.98-1.05 1 1 0 0 0-1.05 1Z"/><path fill="#ECBC4D" d="M14.41 24.76c0 .51-.09 1-.25 1.47a6.17 6.17 0 0 1-5.06 4.18 6.43 6.43 0 0 1-4.77-.98 5.88 5.88 0 0 1-2.74-4.31c-.02-.11 0-.23 0-.36H14.4ZM31.9 12.48c.14.36.27.65.38.96.02.05-.03.14-.08.2a8.81 8.81 0 0 0-1.64 2.7 4.5 4.5 0 0 0-.3 1.82c.02.2.09.4.14.6.18.72.23 1.45-.1 2.15-.15.34-.46.65-.72.74a8.15 8.15 0 0 0-1.2-6.02c-.08-.13-.16-.26-.26-.38s-.09-.2 0-.32a6.3 6.3 0 0 1 2.27-1.87c.48-.23.98-.38 1.5-.58ZM16.76 6.65c.02-.58.48-1.01 1.05-1 .54 0 1 .5.98 1.05a1 1 0 0 1-2.03-.05Z"/></svg>