<svg xmlns="http://www.w3.org/2000/svg" fill="none" viewBox="0 0 35 36"><path fill="#000" d="M31.2 0c.08.04.18.1.27.13a2.01 2.01 0 0 1 1.26 2.07A2 2 0 0 1 31 3.95l-.57.03h-7.84c-1.18 0-1.72.53-1.73 1.7a1.83 1.83 0 0 1-1.72 1.84 1.81 1.81 0 0 1-1.86-1.6c-.05-.5-.06-1-.04-1.48 0-.33-.12-.45-.46-.46-1-.03-1.7-.53-2-1.38A1.99 1.99 0 0 1 15.92.14l.3-.14h1.83c.24.17.43.38.3.7-.11.33-.38.37-.68.36h-.84c-.64 0-1.06.36-1.07.91 0 .55.4.91 1.04.93.94.01 1.5.58 1.52 1.51v1.3a.72.72 0 0 0 .65.71.7.7 0 0 0 .8-.57c.03-.16.04-.33.03-.49.02-1.18.9-2.25 2.07-2.4.75-.09 1.52-.05 2.28-.06h.5V1.05H20.4c-.46 0-.74-.35-.57-.73.08-.12.16-.22.26-.32H31.2Zm-5.41 1.06v1.81l.16.02h4.77a.9.9 0 0 0 .94-.89.9.9 0 0 0-.9-.93c-1.65-.02-3.3-.01-4.97-.01Zm-9.62 23.59a15.27 15.27 0 0 0-3.2-3.11c-1.85-1.34-3.76-2.61-5.65-3.92a11.35 11.35 0 0 1-2.89-2.65c-.37-.51-.36-.52-.98-.31l-2.76.9a.53.53 0 0 1-.37-.99l.26-.09c.92-.3 1.84-.62 2.77-.9.3-.1.37-.22.34-.53a5 5 0 0 1 .02-1c.03-.37.3-.6.6-.56.33.04.5.31.45.7-.15 1.1.3 1.96 1.01 2.73.93 1.01 2.08 1.75 3.2 2.52 1.73 1.2 3.48 2.4 5.19 3.66 1.1.82 2.04 1.83 2.88 2.92.5.63.38 1.16-.32 1.55l-.98.54c-1.26.73-1.28 2.32.02 2.98.9.48 1.85.85 2.83 1.12a20.8 20.8 0 0 1 6.84 3.16 9.63 9.63 0 0 0 3.94 1.56c.71.13 1.5-.48 1.52-1.21 0-.13-.19-.33-.32-.38a70.5 70.5 0 0 0-2.32-.79 1.8 1.8 0 0 1-.97-.7c-1.11-1.6-2.24-3.18-3.36-4.77-.16-.23-.26-.49-.05-.7.15-.13.35-.2.55-.2.14.01.3.18.4.31l3.3 4.67c.14.17.31.3.52.38.77.29 1.57.54 2.35.81.78.28 1.13.94.92 1.76-.37 1.42-1.56 2.12-3 1.83-1.52-.3-2.96-.9-4.24-1.76-1.5-1-3.01-1.95-4.76-2.43-.95-.26-1.89-.55-2.81-.88-.66-.23-1.3-.52-1.92-.86-1.96-1.13-1.93-3.7.03-4.83l.96-.53Z"/><path fill="#000" d="M18.65 19.62c-.6.25-1.13.56-1.69.69a2.77 2.77 0 0 1-2.99-1.17c-1.58-2.2-3.13-4.44-4.68-6.67-.56-.8-.38-1.71.4-2.27l1.55-1.1L9.8 7.06c-.5-.73-1.04-1.44-1.53-2.18a2.57 2.57 0 0 0-2.64-1.22l-4.88.6c-.41.05-.7-.11-.74-.45-.05-.32.16-.56.56-.62l3.1-.38c.63-.07 1.26-.13 1.88-.22 1.51-.2 2.67.38 3.54 1.6l8.1 11.48 5.97 8.47.12.18c.2.29.15.6-.09.78-.24.17-.56.11-.77-.16-.26-.35-.5-.7-.75-1.06l-2.88-4.08a1.91 1.91 0 0 0-.14-.18Zm-6.79-9.64L10.43 11c-.47.33-.5.54-.19 1l4.53 6.42c.79 1.12 2.2 1.2 3.18.2l-6.09-8.63Zm16.16 11.76c-.8 0-1.6.08-2.38-.01a4.21 4.21 0 0 1-3.74-3.04 22 22 0 0 1-.47-1.58c-.18-.66.05-1.25.64-1.59a.38.38 0 0 0 .21-.38v-2.89c.02-.98.72-1.67 1.64-1.63.42.02.74.24 1.06.5.46.37.92.77 1.43 1.06.39.2.8.3 1.24.31.92.05 1.85.05 2.77.01a3.25 3.25 0 0 1 3.3 2.69.5.5 0 0 0 .22.3c.6.35.87.94.69 1.61-.15.57-.32 1.13-.5 1.68a4.4 4.4 0 0 1-4.2 3h-1.9v-.04Zm.01-5.33h-5.06c-.52 0-.6.11-.45.62.14.48.27.96.43 1.44a3.22 3.22 0 0 0 3.02 2.22h4.08a3.23 3.23 0 0 0 3.05-2.24l.42-1.4c.15-.54.08-.64-.46-.64h-5.03Zm-4.66-1.1h9.26l-.07-.29a2.11 2.11 0 0 0-2-1.45c-1.01 0-2.03.03-3.05-.02-.47-.02-.98-.1-1.37-.32-.7-.39-1.3-.92-1.95-1.36-.15-.1-.38-.16-.53-.11-.13.04-.27.27-.27.42-.03 1.04-.02 2.07-.02 3.13Zm-2.44-4.11c0 .82-.45 1.48-1.13 1.76a1.86 1.86 0 0 1-2.02-.39 1.68 1.68 0 0 1-.38-1.96c.28-.57.61-1.1.99-1.61a.85.85 0 0 1 1.33-.07c.51.58.94 1.23 1.17 1.98l.04.28Zm-1.84-1.45c-.29.51-.54.9-.73 1.32-.14.29 0 .63.29.82a.75.75 0 0 0 .9-.02c.25-.21.41-.48.25-.8-.2-.42-.44-.81-.71-1.32Z"/><path fill="#ECBC4D" d="m11.86 9.98 6.09 8.63c-.98 1-2.4.92-3.19-.2l-4.52-6.43c-.32-.45-.27-.67.18-.99l1.44-1Zm11.51 5.33c0-1.07 0-2.1.02-3.13 0-.15.14-.37.27-.42.15-.05.38.01.53.1.65.45 1.26.98 1.95 1.37.4.22.9.3 1.37.32 1.02.05 2.04.01 3.06.02a2.11 2.11 0 0 1 1.99 1.45l.07.3h-9.26Zm-4.28-5.56c.28.5.51.9.71 1.32.16.32 0 .6-.24.8a.75.75 0 0 1-.91.03c-.29-.2-.43-.54-.3-.83.2-.42.45-.8.74-1.32Z"/></svg>