<svg xmlns="http://www.w3.org/2000/svg" fill="none" viewBox="0 0 40 36"><path fill="#000" d="m7.35 4.43 5.31 3.08 11.93 6.94c.26.16.45.17.72.01 1.79-1.05 3.58-2.08 5.37-3.11l.36-.22a2.7 2.7 0 0 0-.37-.23l-7.8-4.54c-.13-.07-.3-.13-.34-.24-.07-.14-.12-.37-.04-.48.08-.12.3-.16.46-.17.1-.01.2.09.3.14l8.6 5a1 1 0 0 1 .53.71c.22 1.06.48 2.1.75 3.16.06.19.18.36.35.47 1.24.74 2.47 1.46 3.72 2.17a1.05 1.05 0 0 1 .56.73c.45 1.98.9 3.95 1.39 5.91.11.46-.02.67-.4.88l-9.58 5.53-9.79 5.66c-.35.2-.63.23-1 0A5860.6 5860.6 0 0 0 .42 25.4c-.38-.23-.47-.45-.4-.89.49-2.55.93-5.12 1.41-7.68.07-.26.24-.49.46-.63 1.3-.79 2.63-1.53 3.94-2.3l.25-.16-1.14-.67c-.3-.16-.4-.36-.34-.72.48-2.58.94-5.17 1.4-7.76a.92.92 0 0 1 .48-.69c2.18-1.25 4.37-2.5 6.54-3.78a.69.69 0 0 1 .79 0l3.17 1.84c.28.16.47.37.28.68-.18.31-.44.21-.7.06-.94-.55-1.89-1.12-2.84-1.65-.15-.08-.4-.11-.53-.04-1.92 1.09-3.83 2.2-5.74 3.3l-.1.12Zm-.58.65c-.42 2.3-.8 4.56-1.25 6.8-.08.44.05.6.4.81l13.1 7.6 4.1 2.38.09-.26 1.2-6.64c.06-.3 0-.46-.29-.63A8902.4 8902.4 0 0 1 7.16 5.28l-.4-.2Zm11.77 29.88.05-.17 1.26-6.84c.06-.32-.13-.42-.34-.54L4.1 18.45a72 72 0 0 1-1.9-1.1.99.99 0 0 0-.05.13c-.4 2.18-.77 4.37-1.2 6.55-.1.51.03.74.46.99 3.77 2.16 7.52 4.36 11.28 6.54l5.84 3.4Zm7.86-11.52c-.67-.73-1.34-.73-2.03-.13-.13.11-.3.16-.44.26-.33.25-.62.2-.96 0a8126.6 8126.6 0 0 0-15.69-9.14c-.25-.15-.42-.16-.67 0-1.18.7-2.36 1.37-3.54 2.05l-.31.2.1.08 17.26 10.02c.14.08.4.04.56-.05l4.54-2.6 1.18-.69Zm.63.62-6.12 3.53a.6.6 0 0 0-.22.38l-.91 4.97c-.12.6-.2 1.2-.31 1.82l.14-.04 8.48-4.89c.21-.12.25-.26.2-.48-.15-.56-.28-1.12-.41-1.68l-.85-3.61Zm4.6-12.24c-.05 0-.1.02-.14.03a809.71 809.71 0 0 0-5.95 3.45.69.69 0 0 0-.27.43c-.32 1.68-.62 3.37-.93 5.06l-.3 1.74 8.9-5.13-1.3-5.58Zm5.37 6.5-.18.08-5.92 3.42a.58.58 0 0 0-.23.36l-.48 2.52-.77 4.36.45-.26 7.71-4.46c.73-.41.73-.41.54-1.24L37 18.33Zm-8.26 9.33h.07l.77-4.22c.06-.37.14-.74.18-1.12.02-.17.02-.45-.07-.5-.47-.27-.98-.48-1.47-.72l-2.03 1.18c.35.2.64.4.96.55.4.19.57.47.67.9.28 1.31.61 2.62.92 3.93Zm.47-7.12c.24.13.47.27.7.42.3.23.53.18.83 0 1.7-1 3.4-1.98 5.11-2.96l.57-.34-2.95-1.72c.11.49.2.9.31 1.3.12.42 0 .68-.39.9-1.38.76-2.75 1.57-4.18 2.4Z"/><path fill="#000" d="M21.43 4.73c-.01.35-.32.58-.57.44-.7-.38-1.38-.77-2.04-1.2-.11-.07-.18-.4-.12-.52.07-.12.4-.22.52-.15.68.34 1.32.73 1.97 1.13.12.07.18.23.24.3Z"/><path fill="#ECBC4D" d="m18.54 34.96-5.84-3.4c-3.76-2.18-7.51-4.38-11.28-6.54-.43-.25-.57-.48-.46-.99.43-2.18.8-4.37 1.2-6.55a1 1 0 0 1 .05-.12l1.9 1.1 15.4 8.95c.21.12.4.22.34.54l-1.26 6.84-.05.17Zm7.86-11.52-1.18.69c-1.51.87-3.02 1.75-4.54 2.6-.15.09-.42.13-.56.05-5.76-3.33-11.51-6.67-17.26-10.02l-.1-.08.3-.2c1.18-.68 2.37-1.36 3.54-2.06.26-.15.43-.14.68.01 5.23 3.05 10.45 6.1 15.68 9.13.35.2.64.26.97.01.13-.1.3-.15.43-.26.7-.6 1.37-.6 2.04.13Zm.63.62.85 3.61.4 1.68c.06.22.03.36-.19.49l-8.47 4.88-.15.04.31-1.82c.3-1.66.6-3.32.92-4.97.02-.15.1-.28.21-.38l6.12-3.53ZM37 18.33l1.12 4.77c.2.83.19.83-.54 1.25l-7.71 4.45-.45.26.78-4.36c.15-.84.3-1.68.47-2.52a.58.58 0 0 1 .23-.36c1.97-1.15 3.94-2.29 5.92-3.42l.18-.07Zm-8.26 9.32c-.31-1.31-.64-2.62-.92-3.93-.1-.43-.28-.71-.67-.9-.32-.14-.6-.35-.96-.55l2.03-1.18c.5.24 1 .45 1.47.72.09.05.09.34.07.5-.04.38-.12.75-.19 1.12l-.76 4.23-.07-.01Zm.46-7.12c1.44-.83 2.8-1.64 4.19-2.41.4-.22.5-.48.38-.9-.1-.4-.2-.8-.3-1.3l2.95 1.72-.58.34c-1.7.99-3.4 1.96-5.1 2.96-.3.18-.54.23-.83 0a7.1 7.1 0 0 0-.7-.41Z"/></svg>