<svg xmlns="http://www.w3.org/2000/svg" fill="none" viewBox="0 0 36 33"><path fill="#ECBC4D" d="m3.236 21.843.399-.81.41-.8.809-.008.809.007.41.802.399.809-.4.809-.41.801-.808.008-.81-.008-.41-.801-.398-.81Z"/><path fill="#000" fill-rule="evenodd" d="m2.832 21.64.5-.912.51-.9 1.015-.008 1.008.009.514.904.497.907-.5.913-.51.9-1.015.008-1.008-.009-.514-.904-.497-.907Zm1.068.57.32.565.634.005.633-.005.321-.565.312-.57-.312-.57-.32-.564-.634-.005-.633.005-.321.565-.312.57.312.57Z" clip-rule="evenodd"/><path fill="#ECBC4D" d="m3.236 18.405.399-.708.41-.702.809-.006.809.006.41.702.399.708-.4.707-.41.702-.808.006-.81-.006-.41-.702-.398-.707Z"/><path fill="#000" fill-rule="evenodd" d="m2.832 18.404.5-.912.51-.9 1.015-.008 1.008.009.514.904.497.907-.5.913-.51.9-1.015.008-1.008-.009-.514-.904-.497-.908Zm1.068.57.32.565.634.005.633-.005.321-.565.312-.57-.312-.57-.32-.564-.634-.005-.633.005-.321.564-.312.57.312.57Z" clip-rule="evenodd"/><path fill="#ECBC4D" d="m3.236 14.966.399-.809.41-.801.809-.008.809.008.41.801.399.81-.4.808-.41.802-.808.007-.81-.007-.41-.802-.398-.809Z"/><path fill="#000" fill-rule="evenodd" d="m2.832 15.168.5-.912.51-.9 1.015-.008 1.008.009.514.904.497.908-.5.912-.51.9-1.015.008-1.008-.009-.514-.904-.497-.908Zm1.068.57.32.565.634.005.633-.005.321-.565.312-.57-.312-.57-.32-.564-.634-.005-.633.005-.321.565-.312.57.312.57Z" clip-rule="evenodd"/><path fill="#ECBC4D" d="m3.236 11.528.399-.708.41-.701.809-.007.809.007.41.701.399.708-.4.708-.41.701-.808.007-.81-.007-.41-.701-.398-.708Z"/><path fill="#000" fill-rule="evenodd" d="m2.832 11.528.5-.912.51-.9 1.015-.008 1.008.008.514.904.497.908-.5.913-.51.9-1.015.007-1.008-.008-.514-.904-.497-.908Zm1.068.57.32.565.634.005.633-.005.321-.565.312-.57-.312-.57-.32-.564-.634-.006-.633.006-.321.564-.312.57.312.57Z" clip-rule="evenodd"/><path fill="#ECBC4D" d="m3.236 8.494.399-.606.41-.602.809-.005.809.005.41.602.399.606-.4.607-.41.601-.808.006-.81-.006-.41-.601-.398-.607Z"/><path fill="#000" fill-rule="evenodd" d="m2.832 8.494.5-.81.51-.8 1.015-.008 1.008.008.514.803.497.807-.5.811-.51.8-1.015.007-1.008-.007-.514-.804-.497-.807Zm1.068.507.32.502.634.004.633-.004L5.808 9l.312-.507-.312-.506-.32-.502-.634-.005-.633.005-.321.502-.312.506L3.9 9Z" clip-rule="evenodd"/><path fill="#ECBC4D" d="m3.236 5.258.399-.809.41-.801.809-.007.809.007.41.801.399.81-.4.808-.41.802-.808.007-.81-.007-.41-.802-.398-.809Z"/><path fill="#000" fill-rule="evenodd" d="m2.832 5.056.5-.912.51-.9 1.015-.008 1.008.008.514.904.497.908-.5.913-.51.9-1.015.007-1.008-.008-.514-.904-.497-.908Zm1.068.57.32.565.634.005.633-.005.321-.565.312-.57-.312-.57-.32-.564-.634-.006-.633.006-.321.564-.312.57.312.57Z" clip-rule="evenodd"/><path fill="#ECBC4D" d="m3.236 1.82.399-.708.41-.701.809-.007.809.007.41.701.399.708-.4.708-.41.701-.808.007-.81-.007-.41-.701-.398-.708Z"/><path fill="#000" fill-rule="evenodd" d="m2.832 1.82.5-.912.51-.9L4.858 0l1.008.008.514.904.497.908-.5.913-.51.899-1.015.008-1.008-.008-.514-.904-.497-.908Zm1.068.57.32.565.634.005.633-.005.321-.565.312-.57-.312-.57-.32-.564L4.853.68 4.22.686l-.321.564-.312.57.312.57Z" clip-rule="evenodd"/><path fill="#ECBC4D" d="m5.663 23.258.399-.707.41-.702.81-.006.808.006.41.701.399.708-.399.708-.41.702-.809.006-.809-.006-.41-.702-.399-.708Z"/><path fill="#000" fill-rule="evenodd" d="m5.258 23.258.5-.912.512-.9 1.013-.008 1.009.009.514.904.497.907-.5.913-.511.9-1.014.008-1.008-.009-.514-.904-.498-.908Zm1.069.57.32.565.634.005.633-.005.32-.565.313-.57-.312-.57-.321-.564-.633-.005-.633.005-.321.565-.313.57.313.57Z" clip-rule="evenodd"/><path fill="#ECBC4D" d="m5.663 19.618.399-.708.41-.701.81-.007.808.007.41.701.399.708-.399.708-.41.701-.809.007-.809-.007-.41-.701-.399-.708Z"/><path fill="#000" fill-rule="evenodd" d="m5.258 19.618.5-.912.512-.9 1.013-.008 1.009.008.514.904.497.908-.5.913-.511.899-1.014.008-1.008-.008-.514-.904-.498-.908Zm1.069.57.32.565.634.005.633-.005.32-.565.313-.57-.312-.57-.321-.564-.633-.006-.633.005-.321.565-.313.57.313.57Z" clip-rule="evenodd"/><path fill="#ECBC4D" d="m5.663 16.382.399-.708.41-.701.81-.007.808.007.41.701.399.708-.399.708-.41.701-.809.007-.809-.007-.41-.701-.399-.708Z"/><path fill="#000" fill-rule="evenodd" d="m5.258 16.382.5-.913.512-.899 1.013-.008 1.009.008.514.904.497.908-.5.912-.511.9-1.014.008-1.008-.008-.514-.904-.498-.908Zm1.069.57.32.564.634.006.633-.005.32-.565.313-.57-.312-.57-.321-.565-.633-.005-.633.005-.321.565-.313.57.313.57Z" clip-rule="evenodd"/><path fill="#ECBC4D" d="m5.663 12.944.399-.81.41-.8.81-.008.808.007.41.802.399.809-.399.809-.41.801-.809.008-.809-.008-.41-.801-.399-.81Z"/><path fill="#000" fill-rule="evenodd" d="m5.258 13.146.5-.912.512-.9 1.013-.008 1.009.008.514.904.497.908-.5.912-.511.9-1.014.008-1.008-.008-.514-.904-.498-.908Zm1.069.57.32.565.634.005.633-.005.32-.565.313-.57-.312-.57-.321-.564-.633-.006-.633.006-.321.564-.313.57.313.57Z" clip-rule="evenodd"/><path fill="#ECBC4D" d="m5.663 9.506.399-.708.41-.702.81-.006.808.006.41.702.399.708-.399.707-.41.702-.809.006-.809-.006-.41-.701-.399-.708Z"/><path fill="#000" fill-rule="evenodd" d="m5.258 9.506.5-.913.512-.9 1.013-.008 1.009.009.514.904.497.908-.5.912-.511.9-1.014.008-1.008-.008-.514-.904-.498-.908Zm1.069.57.32.564.634.005.633-.005.32-.564.313-.57-.312-.57-.321-.565-.633-.005-.633.005-.321.565-.313.57.313.57Z" clip-rule="evenodd"/><path fill="#ECBC4D" d="m5.663 6.472.399-.607.41-.601.81-.006.808.006.41.601.399.607-.399.607-.41.6-.809.006-.809-.005-.41-.601-.399-.607Z"/><path fill="#000" fill-rule="evenodd" d="m5.258 6.472.5-.811.512-.8 1.013-.007 1.009.007.514.804.497.807-.5.81-.511.8-1.014.008-1.008-.008-.514-.803-.498-.807Zm1.069.506.32.502.634.005.633-.005.32-.502.313-.506-.312-.507-.321-.502-.633-.004-.633.004-.321.502-.313.507.313.506Z" clip-rule="evenodd"/><path fill="#ECBC4D" d="m5.663 3.034.399-.708.41-.702.81-.006.808.006.41.702.399.708-.399.708-.41.701-.809.006-.809-.006-.41-.701-.399-.708Z"/><path fill="#000" fill-rule="evenodd" d="m5.258 3.034.5-.913.512-.9 1.013-.007 1.009.008.514.904.497.908-.5.912-.511.9-1.014.008-1.008-.008-.514-.904-.498-.908Zm1.069.57.32.564.634.006.633-.006.32-.564.313-.57-.312-.57-.321-.565-.633-.005-.633.005-.321.565-.313.57.313.57Z" clip-rule="evenodd"/><path fill="#ECBC4D" d="m8.494 21.843.4-.81.41-.8.808-.008.81.007.41.802.398.809-.399.809-.41.801-.809.008-.809-.008-.41-.801-.399-.81Z"/><path fill="#000" fill-rule="evenodd" d="m8.09 21.64.5-.912.511-.9 1.014-.008 1.009.009.513.904.498.907-.5.913-.511.9-1.014.008-1.009-.009-.514-.904-.497-.907Zm1.068.57.321.565.633.005.633-.005.322-.565.312-.57-.313-.57-.32-.564-.634-.005-.633.005-.32.565-.313.57.312.57Z" clip-rule="evenodd"/><path fill="#ECBC4D" d="m8.494 18.405.4-.708.41-.702.808-.006.81.006.41.702.398.708-.399.707-.41.702-.809.006-.809-.006-.41-.702-.399-.707Z"/><path fill="#000" fill-rule="evenodd" d="m8.09 18.404.5-.912.511-.9 1.014-.008 1.009.009.513.904.498.907-.5.913-.511.9-1.014.008-1.009-.009-.514-.904-.497-.908Zm1.068.57.321.565.633.005.633-.005.322-.565.312-.57-.313-.57-.32-.564-.634-.005-.633.005-.32.564-.313.57.312.57Z" clip-rule="evenodd"/><path fill="#ECBC4D" d="m8.494 14.966.4-.809.41-.801.808-.008.81.008.41.801.398.81-.399.808-.41.802-.809.007-.809-.007-.41-.802-.399-.809Z"/><path fill="#000" fill-rule="evenodd" d="m8.09 15.168.5-.912.511-.9 1.014-.008 1.009.009.513.904.498.908-.5.912-.511.9-1.014.008-1.01-.009-.514-.904-.497-.908Zm1.068.57.321.565.633.005.633-.005.322-.565.312-.57-.313-.57-.32-.564-.634-.005-.633.005-.32.565-.313.57.312.57Z" clip-rule="evenodd"/><path fill="#ECBC4D" d="m8.494 11.528.4-.708.41-.701.808-.007.81.007.41.701.398.708-.399.708-.41.701-.809.007-.809-.007-.41-.701-.399-.708Z"/><path fill="#000" fill-rule="evenodd" d="m8.09 11.528.5-.912.511-.9 1.014-.008 1.009.008.513.904.498.908-.5.913-.511.9-1.014.007-1.01-.008-.514-.904-.497-.908Zm1.068.57.321.565.633.005.633-.005.322-.565.312-.57-.313-.57-.32-.564-.634-.006-.633.006-.32.564-.313.57.312.57Z" clip-rule="evenodd"/><path fill="#ECBC4D" d="m8.494 8.494.4-.606.41-.602.808-.005.81.005.41.602.398.606-.399.607-.41.601-.809.006-.809-.006-.41-.601-.399-.607Z"/><path fill="#000" fill-rule="evenodd" d="m8.09 8.494.5-.81.511-.8 1.014-.008 1.009.008.513.803.498.807-.5.811-.511.8-1.014.007-1.009-.007-.514-.804-.497-.807Zm1.068.507.321.502.633.004.633-.004.322-.502.312-.507-.313-.506-.32-.502-.634-.005-.633.005-.32.502-.313.506.312.507Z" clip-rule="evenodd"/><path fill="#ECBC4D" d="m8.494 5.258.4-.809.41-.801.808-.007.81.007.41.801.398.81-.399.808-.41.802-.809.007-.809-.007-.41-.802-.399-.809Z"/><path fill="#000" fill-rule="evenodd" d="m8.09 5.056.5-.912.511-.9 1.014-.008 1.009.008.513.904.498.908-.5.913-.511.9-1.014.007-1.01-.008-.514-.904-.497-.908Zm1.068.57.321.565.633.005.633-.005.322-.565.312-.57-.313-.57-.32-.564-.634-.006-.633.006-.32.564-.313.57.312.57Z" clip-rule="evenodd"/><path fill="#ECBC4D" d="m8.494 1.82.4-.708.41-.701.808-.007.81.007.41.701.398.708-.399.708-.41.701-.809.007-.809-.007-.41-.701-.399-.708Z"/><path fill="#000" fill-rule="evenodd" d="m8.09 1.82.5-.912.511-.9L10.115 0l1.009.008.513.904.498.908-.5.913-.511.899-1.014.008-1.01-.008-.514-.904-.497-.908Zm1.068.57.321.565.633.005.633-.005.322-.565.312-.57-.313-.57-.32-.564-.634-.006-.633.006-.32.564-.313.57.312.57Z" clip-rule="evenodd"/><path fill="#ECBC4D" d="m10.921 23.258.4-.707.41-.702.808-.006.81.006.41.701.398.708-.399.708-.41.702-.809.006-.809-.006-.41-.702-.399-.708Z"/><path fill="#000" fill-rule="evenodd" d="m10.517 23.258.5-.912.511-.9 1.014-.008 1.009.009.514.904.497.907-.5.913-.511.9-1.014.008-1.009-.009-.514-.904-.497-.908Zm1.068.57.321.565.634.005.633-.005.32-.565.313-.57-.312-.57-.321-.564-.633-.005-.634.005-.32.565-.313.57.312.57Z" clip-rule="evenodd"/><path fill="#ECBC4D" d="m10.921 19.618.4-.708.41-.701.808-.007.81.007.41.701.398.708-.399.708-.41.701-.809.007-.809-.007-.41-.701-.399-.708Z"/><path fill="#000" fill-rule="evenodd" d="m10.517 19.618.5-.912.511-.9 1.014-.008 1.009.008.514.904.497.908-.5.913-.511.899-1.014.008-1.009-.008-.514-.904-.497-.908Zm1.068.57.321.565.634.005.633-.005.32-.565.313-.57-.312-.57-.321-.564-.633-.006-.634.005-.32.565-.313.57.312.57Z" clip-rule="evenodd"/><path fill="#ECBC4D" d="m10.921 16.382.4-.708.41-.701.808-.007.81.007.41.701.398.708-.399.708-.41.701-.809.007-.809-.007-.41-.701-.399-.708Z"/><path fill="#000" fill-rule="evenodd" d="m10.517 16.382.5-.913.511-.899 1.014-.008 1.009.008.514.904.497.908-.5.912-.511.9-1.014.008-1.009-.008-.514-.904-.497-.908Zm1.068.57.321.564.634.006.633-.005.32-.565.313-.57-.312-.57-.321-.565-.633-.005-.634.005-.32.565-.313.57.312.57Z" clip-rule="evenodd"/><path fill="#ECBC4D" d="m10.921 12.944.4-.81.41-.8.808-.008.81.007.41.802.398.809-.399.809-.41.801-.809.008-.809-.008-.41-.801-.399-.81Z"/><path fill="#000" fill-rule="evenodd" d="m10.517 13.146.5-.912.511-.9 1.014-.008 1.009.008.514.904.497.908-.5.912-.511.9-1.014.008-1.009-.008-.514-.904-.497-.908Zm1.068.57.321.565.634.005.633-.005.32-.565.313-.57-.312-.57-.321-.564-.633-.006-.634.006-.32.564-.313.57.312.57Z" clip-rule="evenodd"/><path fill="#ECBC4D" d="m10.921 9.506.4-.708.41-.702.808-.006.81.006.41.702.398.708-.399.707-.41.702-.809.006-.809-.006-.41-.701-.399-.708Z"/><path fill="#000" fill-rule="evenodd" d="m10.517 9.506.5-.913.511-.9 1.014-.008 1.009.009.514.904.497.908-.5.912-.511.9-1.014.008-1.009-.008-.514-.904-.497-.908Zm1.068.57.321.564.634.005.633-.005.32-.564.313-.57-.312-.57-.321-.565-.633-.005-.634.005-.32.565-.313.57.312.57Z" clip-rule="evenodd"/><path fill="#ECBC4D" d="m10.921 6.472.4-.607.41-.601.808-.006.81.006.41.601.398.607-.399.607-.41.6-.809.006-.809-.005-.41-.601-.399-.607Z"/><path fill="#000" fill-rule="evenodd" d="m10.517 6.472.5-.811.511-.8 1.014-.007 1.009.007.514.804.497.807-.5.81-.511.8-1.014.008-1.009-.008-.514-.803-.497-.807Zm1.068.506.321.502.634.005.633-.005.32-.502.313-.506-.312-.507-.321-.502-.633-.004-.634.004-.32.502-.313.507.312.506Z" clip-rule="evenodd"/><path fill="#ECBC4D" d="m10.921 3.034.4-.708.41-.702.808-.006.81.006.41.702.398.708-.399.708-.41.701-.809.006-.809-.006-.41-.701-.399-.708Z"/><path fill="#000" fill-rule="evenodd" d="m10.517 3.034.5-.913.511-.9 1.014-.007 1.009.008.514.904.497.908-.5.912-.511.9-1.014.008-1.009-.008-.514-.904-.497-.908Zm1.068.57.321.564.634.006.633-.006.32-.564.313-.57-.312-.57-.321-.565-.633-.005-.634.005-.32.565-.313.57.312.57Z" clip-rule="evenodd"/><path fill="#ECBC4D" d="m13.753 21.843.399-.81.41-.8.809-.008.809.007.41.802.399.809-.399.809-.41.801-.81.008-.808-.008-.41-.801-.4-.81Z"/><path fill="#000" fill-rule="evenodd" d="m13.348 21.64.5-.912.511-.9 1.014-.008 1.009.009.514.904.497.907-.5.913-.511.9-1.014.008-1.009-.009-.514-.904-.497-.907Zm1.068.57.321.565.634.005.633-.005.32-.565.313-.57-.312-.57-.321-.564-.633-.005-.634.005-.32.565-.313.57.313.57Z" clip-rule="evenodd"/><path fill="#ECBC4D" d="m13.753 18.405.399-.708.41-.702.809-.006.809.006.41.702.399.708-.399.707-.41.702-.81.006-.808-.006-.41-.702-.4-.707Z"/><path fill="#000" fill-rule="evenodd" d="m13.348 18.404.5-.912.511-.9 1.014-.008 1.009.009.514.904.497.907-.5.913-.511.9-1.014.008-1.009-.009-.514-.904-.497-.908Zm1.068.57.321.565.634.005.633-.005.32-.565.313-.57-.312-.57-.321-.564-.633-.005-.634.005-.32.564-.313.57.313.57Z" clip-rule="evenodd"/><path fill="#ECBC4D" d="m13.753 14.966.399-.809.41-.801.809-.008.809.008.41.801.399.81-.399.808-.41.802-.81.007-.808-.007-.41-.802-.4-.809Z"/><path fill="#000" fill-rule="evenodd" d="m13.348 15.168.5-.912.511-.9 1.014-.008 1.009.009.514.904.497.908-.5.912-.511.9-1.014.008-1.009-.009-.514-.904-.497-.908Zm1.068.57.321.565.634.005.633-.005.32-.565.313-.57-.312-.57-.321-.564-.633-.005-.634.005-.32.565-.313.57.313.57Z" clip-rule="evenodd"/><path fill="#ECBC4D" d="m13.753 11.528.399-.708.41-.701.809-.007.809.007.41.701.399.708-.399.708-.41.701-.81.007-.808-.007-.41-.701-.4-.708Z"/><path fill="#000" fill-rule="evenodd" d="m13.348 11.528.5-.912.511-.9 1.014-.008 1.009.008.514.904.497.908-.5.913-.511.9-1.014.007-1.009-.008-.514-.904-.497-.908Zm1.068.57.321.565.634.005.633-.005.32-.565.313-.57-.312-.57-.321-.564-.633-.006-.634.006-.32.564-.313.57.313.57Z" clip-rule="evenodd"/><path fill="#ECBC4D" d="m13.753 8.494.399-.606.41-.602.809-.005.809.005.41.602.399.606-.399.607-.41.601-.81.006-.808-.006-.41-.601-.4-.607Z"/><path fill="#000" fill-rule="evenodd" d="m13.348 8.494.5-.81.511-.8 1.014-.008 1.009.008.514.803.497.807-.5.811-.511.8-1.014.007-1.009-.007-.514-.804-.497-.807Zm1.068.507.321.502.634.004.633-.004.32-.502.313-.507-.312-.506-.321-.502-.633-.005-.634.005-.32.502-.313.506.313.507Z" clip-rule="evenodd"/><path fill="#ECBC4D" d="m13.753 5.258.399-.809.41-.801.809-.007.809.007.41.801.399.81-.399.808-.41.802-.81.007-.808-.007-.41-.802-.4-.809Z"/><path fill="#000" fill-rule="evenodd" d="m13.348 5.056.5-.912.511-.9 1.014-.008 1.009.008.514.904.497.908-.5.913-.511.9-1.014.007-1.009-.008-.514-.904-.497-.908Zm1.068.57.321.565.634.005.633-.005.32-.565.313-.57-.312-.57-.321-.564-.633-.006-.634.006-.32.564-.313.57.313.57Z" clip-rule="evenodd"/><path fill="#ECBC4D" d="m13.753 1.82.399-.708.41-.701.809-.007.809.007.41.701.399.708-.399.708-.41.701-.81.007-.808-.007-.41-.701-.4-.708Z"/><path fill="#000" fill-rule="evenodd" d="m13.348 1.82.5-.912.511-.9L15.373 0l1.009.008.514.904.497.908-.5.913-.511.899-1.014.008-1.009-.008-.514-.904-.497-.908Zm1.068.57.321.565.634.005.633-.005.32-.565.313-.57-.312-.57-.321-.564L15.37.68l-.634.006-.32.564-.313.57.313.57Z" clip-rule="evenodd"/><path fill="#ECBC4D" d="m16.18 23.258.448-.707.462-.702.91-.006.91.006.461.701.45.708-.45.708-.461.702-.91.006-.91-.006-.462-.702-.448-.708Z"/><path fill="#000" fill-rule="evenodd" d="m15.775 23.258.55-.912.563-.9 1.115-.008 1.11.009.565.904.547.907-.55.913-.563.9-1.115.008-1.11-.009-.564-.904-.548-.908Zm1.176.57.353.565.696.005.697-.005.353-.565.343-.57-.343-.57-.353-.564-.697-.005-.696.005-.353.565-.344.57.344.57Z" clip-rule="evenodd"/><path fill="#ECBC4D" d="m16.18 19.618.448-.708.462-.701.91-.007.91.007.461.701.45.708-.45.708-.461.701-.91.007-.91-.007-.462-.701-.448-.708Z"/><path fill="#000" fill-rule="evenodd" d="m15.775 19.618.55-.912.563-.9 1.115-.008 1.11.008.565.904.547.908-.55.913-.563.899-1.115.008-1.11-.008-.564-.904-.548-.908Zm1.176.57.353.565.696.005.697-.005.353-.565.343-.57-.343-.57-.353-.564-.697-.006-.696.005-.353.565-.344.57.344.57Z" clip-rule="evenodd"/><path fill="#ECBC4D" d="m16.18 16.382.448-.708.462-.701.91-.007.91.007.461.701.45.708-.45.708-.461.701-.91.007-.91-.007-.462-.701-.448-.708Z"/><path fill="#000" fill-rule="evenodd" d="m15.775 16.382.55-.913.563-.899 1.115-.008 1.11.008.565.904.547.908-.55.912-.563.9-1.115.008-1.11-.008-.564-.904-.548-.908Zm1.176.57.353.564.696.006.697-.005.353-.565.343-.57-.343-.57-.353-.565-.697-.005-.696.005-.353.565-.344.57.344.57Z" clip-rule="evenodd"/><path fill="#ECBC4D" d="m16.18 12.944.448-.81.462-.8.91-.008.91.007.461.802.45.809-.45.809-.461.801-.91.008-.91-.008-.462-.801-.448-.81Z"/><path fill="#000" fill-rule="evenodd" d="m15.775 13.146.55-.912.563-.9 1.115-.008 1.11.008.565.904.547.908-.55.912-.563.9-1.115.008-1.11-.008-.564-.904-.548-.908Zm1.176.57.353.565.696.005.697-.005.353-.565.343-.57-.343-.57-.353-.564-.697-.006-.696.006-.353.564-.344.57.344.57Z" clip-rule="evenodd"/><path fill="#ECBC4D" d="m16.18 9.506.448-.708.462-.702.91-.006.91.006.461.702.45.708-.45.707-.461.702-.91.006-.91-.006-.462-.701-.448-.708Z"/><path fill="#000" fill-rule="evenodd" d="m15.775 9.506.55-.913.563-.9 1.115-.008 1.11.009.565.904.547.908-.55.912-.563.9-1.115.008-1.11-.008-.564-.904-.548-.908Zm1.176.57.353.564.696.005.697-.005.353-.564.343-.57-.343-.57-.353-.565L18 8.366l-.696.005-.353.565-.344.57.344.57Z" clip-rule="evenodd"/><path fill="#ECBC4D" d="m16.18 6.472.448-.607.462-.601.91-.006.91.006.461.601.45.607-.45.607-.461.6-.91.006-.91-.005-.462-.601-.448-.607Z"/><path fill="#000" fill-rule="evenodd" d="m15.775 6.472.55-.811.563-.8 1.115-.007 1.11.007.565.804.547.807-.55.81-.563.8-1.115.008-1.11-.008-.564-.803-.548-.807Zm1.176.506.353.502.696.005.697-.005.353-.502.343-.506-.343-.507-.353-.502L18 5.46l-.696.004-.353.502-.344.507.344.506Z" clip-rule="evenodd"/><path fill="#ECBC4D" d="m16.18 3.034.448-.708.462-.702.91-.006.91.006.461.702.45.708-.45.708-.461.701-.91.006-.91-.006-.462-.701-.448-.708Z"/><path fill="#000" fill-rule="evenodd" d="m15.775 3.034.55-.913.563-.9 1.115-.007 1.11.008.565.904.547.908-.55.912-.563.9-1.115.008-1.11-.008-.564-.904-.548-.908Zm1.176.57.353.564.696.006.697-.006.353-.564.343-.57-.343-.57-.353-.565L18 1.894l-.696.005-.353.565-.344.57.344.57Z" clip-rule="evenodd"/><path fill="#ECBC4D" d="m19.011 21.843.4-.81.41-.8.808-.008.81.007.41.802.398.809-.399.809-.41.801-.809.008-.809-.008-.41-.801-.399-.81Z"/><path fill="#000" fill-rule="evenodd" d="m18.607 21.64.5-.912.511-.9 1.014-.008 1.009.009.514.904.497.907-.5.913-.511.9-1.014.008-1.009-.009-.514-.904-.497-.907Zm1.068.57.321.565.633.005.634-.005.32-.565.313-.57-.312-.57-.321-.564-.634-.005-.633.005-.32.565-.313.57.312.57Z" clip-rule="evenodd"/><path fill="#ECBC4D" d="m19.011 18.405.4-.708.41-.702.808-.006.81.006.41.702.398.708-.399.707-.41.702-.809.006-.809-.006-.41-.702-.399-.707Z"/><path fill="#000" fill-rule="evenodd" d="m18.607 18.404.5-.912.511-.9 1.014-.008 1.009.009.514.904.497.907-.5.913-.511.9-1.014.008-1.009-.009-.514-.904-.497-.908Zm1.068.57.321.565.633.005.634-.005.32-.565.313-.57-.312-.57-.321-.564-.634-.005-.633.005-.32.564-.313.57.312.57Z" clip-rule="evenodd"/><path fill="#ECBC4D" d="m19.011 14.966.4-.809.41-.801.808-.008.81.008.41.801.398.81-.399.808-.41.802-.809.007-.809-.007-.41-.802-.399-.809Z"/><path fill="#000" fill-rule="evenodd" d="m18.607 15.168.5-.912.511-.9 1.014-.008 1.009.009.514.904.497.908-.5.912-.511.9-1.014.008-1.009-.009-.514-.904-.497-.908Zm1.068.57.321.565.633.005.634-.005.32-.565.313-.57-.312-.57-.321-.564-.634-.005-.633.005-.32.565-.313.57.312.57Z" clip-rule="evenodd"/><path fill="#ECBC4D" d="m19.011 11.528.4-.708.41-.701.808-.007.81.007.41.701.398.708-.399.708-.41.701-.809.007-.809-.007-.41-.701-.399-.708Z"/><path fill="#000" fill-rule="evenodd" d="m18.607 11.528.5-.912.511-.9 1.014-.008 1.009.008.514.904.497.908-.5.913-.511.9-1.014.007-1.009-.008-.514-.904-.497-.908Zm1.068.57.321.565.633.005.634-.005.32-.565.313-.57-.312-.57-.321-.564-.634-.006-.633.006-.32.564-.313.57.312.57Z" clip-rule="evenodd"/><path fill="#ECBC4D" d="m19.011 8.494.4-.606.41-.602.808-.005.81.005.41.602.398.606-.399.607-.41.601-.809.006-.809-.006-.41-.601-.399-.607Z"/><path fill="#000" fill-rule="evenodd" d="m18.607 8.494.5-.81.511-.8 1.014-.008 1.009.008.514.803.497.807-.5.811-.511.8-1.014.007-1.009-.007-.514-.804-.497-.807Zm1.068.507.321.502.633.004.634-.004.32-.502.313-.507-.312-.506-.321-.502-.634-.005-.633.005-.32.502-.313.506.312.507Z" clip-rule="evenodd"/><path fill="#ECBC4D" d="m19.011 5.258.4-.809.41-.801.808-.007.81.007.41.801.398.81-.399.808-.41.802-.809.007-.809-.007-.41-.802-.399-.809Z"/><path fill="#000" fill-rule="evenodd" d="m18.607 5.056.5-.912.511-.9 1.014-.008 1.009.008.514.904.497.908-.5.913-.511.9-1.014.007-1.009-.008-.514-.904-.497-.908Zm1.068.57.321.565.633.005.634-.005.32-.565.313-.57-.312-.57-.321-.564-.634-.006-.633.006-.32.564-.313.57.312.57Z" clip-rule="evenodd"/><path fill="#ECBC4D" d="m19.011 1.82.4-.708.41-.701.808-.007.81.007.41.701.398.708-.399.708-.41.701-.809.007-.809-.007-.41-.701-.399-.708Z"/><path fill="#000" fill-rule="evenodd" d="m18.607 1.82.5-.912.511-.9L20.632 0l1.009.008.514.904.497.908-.5.913-.511.899-1.014.008-1.009-.008-.514-.904-.497-.908Zm1.068.57.321.565.633.005.634-.005.32-.565.313-.57-.312-.57-.321-.564-.634-.006-.633.006-.32.564-.313.57.312.57Z" clip-rule="evenodd"/><path fill="#ECBC4D" d="m21.843 23.258.399-.707.41-.702.809-.006.809.006.41.701.399.708-.4.708-.41.702-.808.006-.81-.006-.41-.702-.398-.708Z"/><path fill="#000" fill-rule="evenodd" d="m21.438 23.258.5-.912.511-.9 1.014-.008 1.009.009.514.904.497.907-.5.913-.511.9-1.014.008-1.009-.009-.514-.904-.497-.908Zm1.068.57.321.565.633.005.634-.005.32-.565.313-.57-.312-.57-.321-.564-.634-.005-.633.005-.32.565-.313.57.312.57Z" clip-rule="evenodd"/><path fill="#ECBC4D" d="m21.843 19.618.399-.708.41-.701.809-.007.809.007.41.701.399.708-.4.708-.41.701-.808.007-.81-.007-.41-.701-.398-.708Z"/><path fill="#000" fill-rule="evenodd" d="m21.438 19.618.5-.912.511-.9 1.014-.008 1.009.008.514.904.497.908-.5.913-.511.899-1.014.008-1.009-.008-.514-.904-.497-.908Zm1.068.57.321.565.633.005.634-.005.32-.565.313-.57-.312-.57-.321-.564-.634-.006-.633.005-.32.565-.313.57.312.57Z" clip-rule="evenodd"/><path fill="#ECBC4D" d="m21.843 16.382.399-.708.41-.701.809-.007.809.007.41.701.399.708-.4.708-.41.701-.808.007-.81-.007-.41-.701-.398-.708Z"/><path fill="#000" fill-rule="evenodd" d="m21.438 16.382.5-.913.511-.899 1.014-.008 1.009.008.514.904.497.908-.5.912-.511.9-1.014.008-1.009-.008-.514-.904-.497-.908Zm1.068.57.321.564.633.006.634-.005.32-.565.313-.57-.312-.57-.321-.565-.634-.005-.633.005-.32.565-.313.57.312.57Z" clip-rule="evenodd"/><path fill="#ECBC4D" d="m21.843 12.944.399-.81.41-.8.809-.008.809.007.41.802.399.809-.4.809-.41.801-.808.008-.81-.008-.41-.801-.398-.81Z"/><path fill="#000" fill-rule="evenodd" d="m21.438 13.146.5-.912.511-.9 1.014-.008 1.009.008.514.904.497.908-.5.912-.511.9-1.014.008-1.009-.008-.514-.904-.497-.908Zm1.068.57.321.565.633.005.634-.005.32-.565.313-.57-.312-.57-.321-.564-.634-.006-.633.006-.32.564-.313.57.312.57Z" clip-rule="evenodd"/><path fill="#ECBC4D" d="m21.843 9.506.399-.708.41-.702.809-.006.809.006.41.702.399.708-.4.707-.41.702-.808.006-.81-.006-.41-.701-.398-.708Z"/><path fill="#000" fill-rule="evenodd" d="m21.438 9.506.5-.913.511-.9 1.014-.008 1.009.009.514.904.497.908-.5.912-.511.9-1.014.008-1.009-.008-.514-.904-.497-.908Zm1.068.57.321.564.633.005.634-.005.32-.564.313-.57-.312-.57-.321-.565-.634-.005-.633.005-.32.565-.313.57.312.57Z" clip-rule="evenodd"/><path fill="#ECBC4D" d="m21.843 6.472.399-.607.41-.601.809-.006.809.006.41.601.399.607-.4.607-.41.6-.808.006-.81-.005-.41-.601-.398-.607Z"/><path fill="#000" fill-rule="evenodd" d="m21.438 6.472.5-.811.511-.8 1.014-.007 1.009.007.514.804.497.807-.5.81-.511.8-1.014.008-1.009-.008-.514-.803-.497-.807Zm1.068.506.321.502.633.005.634-.005.32-.502.313-.506-.312-.507-.321-.502-.634-.004-.633.004-.32.502-.313.507.312.506Z" clip-rule="evenodd"/><path fill="#ECBC4D" d="m21.843 3.034.399-.708.41-.702.809-.006.809.006.41.702.399.708-.4.708-.41.701-.808.006-.81-.006-.41-.701-.398-.708Z"/><path fill="#000" fill-rule="evenodd" d="m21.438 3.034.5-.913.511-.9 1.014-.007 1.009.008.514.904.497.908-.5.912-.511.9-1.014.008-1.009-.008-.514-.904-.497-.908Zm1.068.57.321.564.633.006.634-.006.32-.564.313-.57-.312-.57-.321-.565-.634-.005-.633.005-.32.565-.313.57.312.57Z" clip-rule="evenodd"/><path fill="#ECBC4D" d="m24.27 21.843.399-.81.41-.8.808-.008.81.007.41.802.399.809-.4.809-.41.801-.809.008-.809-.008-.41-.801-.398-.81Z"/><path fill="#000" fill-rule="evenodd" d="m23.865 21.64.5-.912.512-.9 1.013-.008 1.009.009.514.904.497.907-.5.913-.511.9-1.014.008-1.009-.009-.513-.904-.498-.907Zm1.069.57.32.565.634.005.633-.005.32-.565.313-.57-.312-.57-.321-.564-.633-.005-.634.005-.32.565-.313.57.313.57Z" clip-rule="evenodd"/><path fill="#ECBC4D" d="m24.27 18.405.399-.708.41-.702.808-.006.81.006.41.702.399.708-.4.707-.41.702-.809.006-.809-.006-.41-.702-.398-.707Z"/><path fill="#000" fill-rule="evenodd" d="m23.865 18.404.5-.912.512-.9 1.013-.008 1.009.009.514.904.497.907-.5.913-.511.9-1.014.008-1.009-.009-.513-.904-.498-.908Zm1.069.57.32.565.634.005.633-.005.32-.565.313-.57-.312-.57-.321-.564-.633-.005-.634.005-.32.564-.313.57.313.57Z" clip-rule="evenodd"/><path fill="#ECBC4D" d="m24.27 14.966.399-.809.41-.801.808-.008.81.008.41.801.399.81-.4.808-.41.802-.809.007-.809-.007-.41-.802-.398-.809Z"/><path fill="#000" fill-rule="evenodd" d="m23.865 15.168.5-.912.512-.9 1.013-.008 1.009.009.514.904.497.908-.5.912-.511.9-1.014.008-1.009-.009-.513-.904-.498-.908Zm1.069.57.32.565.634.005.633-.005.32-.565.313-.57-.312-.57-.321-.564-.633-.005-.634.005-.32.565-.313.57.313.57Z" clip-rule="evenodd"/><path fill="#ECBC4D" d="m24.27 11.528.399-.708.41-.701.808-.007.81.007.41.701.399.708-.4.708-.41.701-.809.007-.809-.007-.41-.701-.398-.708Z"/><path fill="#000" fill-rule="evenodd" d="m23.865 11.528.5-.912.512-.9 1.013-.008 1.009.008.514.904.497.908-.5.913-.511.9-1.014.007-1.009-.008-.513-.904-.498-.908Zm1.069.57.32.565.634.005.633-.005.32-.565.313-.57-.312-.57-.321-.564-.633-.006-.634.006-.32.564-.313.57.313.57Z" clip-rule="evenodd"/><path fill="#ECBC4D" d="m24.27 8.494.399-.606.41-.602.808-.005.81.005.41.602.399.606-.4.607-.41.601-.809.006-.809-.006-.41-.601-.398-.607Z"/><path fill="#000" fill-rule="evenodd" d="m23.865 8.494.5-.81.512-.8 1.013-.008 1.009.008.514.803.497.807-.5.811-.511.8-1.014.007-1.009-.007-.513-.804-.498-.807Zm1.069.507.32.502.634.004.633-.004.32-.502.313-.507-.312-.506-.321-.502-.633-.005-.634.005-.32.502-.313.506.313.507Z" clip-rule="evenodd"/><path fill="#ECBC4D" d="m24.27 5.258.399-.809.41-.801.808-.007.81.007.41.801.399.81-.4.808-.41.802-.809.007-.809-.007-.41-.802-.398-.809Z"/><path fill="#000" fill-rule="evenodd" d="m23.865 5.056.5-.912.512-.9 1.013-.008 1.009.008.514.904.497.908-.5.913-.511.9-1.014.007-1.009-.008-.513-.904-.498-.908Zm1.069.57.32.565.634.005.633-.005.32-.565.313-.57-.312-.57-.321-.564-.633-.006-.634.006-.32.564-.313.57.313.57Z" clip-rule="evenodd"/><path fill="#ECBC4D" d="m24.27 1.82.399-.708.41-.701.808-.007.81.007.41.701.399.708-.4.708-.41.701-.809.007-.809-.007-.41-.701-.398-.708Z"/><path fill="#000" fill-rule="evenodd" d="m23.865 1.82.5-.912.512-.9L25.89 0l1.01.008.514.904.497.908-.5.913-.511.899-1.014.008-1.009-.008-.513-.904-.498-.908Zm1.069.57.32.565.634.005.633-.005.32-.565.313-.57-.312-.57-.321-.564-.633-.006-.634.006-.32.564-.313.57.313.57Z" clip-rule="evenodd"/><path fill="#ECBC4D" d="m27.101 23.258.399-.707.41-.702.81-.006.808.006.41.701.399.708-.399.708-.41.702-.809.006-.809-.006-.41-.702-.399-.708Z"/><path fill="#000" fill-rule="evenodd" d="m26.697 23.258.5-.912.511-.9 1.014-.008 1.008.009.514.904.498.907-.5.913-.512.9-1.013.008-1.009-.009-.514-.904-.497-.908Zm1.068.57.321.565.633.005.633-.005.321-.565.313-.57-.313-.57-.32-.564-.634-.005-.633.005-.32.565-.313.57.312.57Z" clip-rule="evenodd"/><path fill="#ECBC4D" d="m27.101 19.618.399-.708.41-.701.81-.007.808.007.41.701.399.708-.399.708-.41.701-.809.007-.809-.007-.41-.701-.399-.708Z"/><path fill="#000" fill-rule="evenodd" d="m26.697 19.618.5-.912.511-.9 1.014-.008 1.008.008.514.904.498.908-.5.913-.512.899-1.013.008-1.009-.008-.514-.904-.497-.908Zm1.068.57.321.565.633.005.633-.005.321-.565.313-.57-.313-.57-.32-.564-.634-.006-.633.005-.32.565-.313.57.312.57Z" clip-rule="evenodd"/><path fill="#ECBC4D" d="m27.101 16.382.399-.708.41-.701.81-.007.808.007.41.701.399.708-.399.708-.41.701-.809.007-.809-.007-.41-.701-.399-.708Z"/><path fill="#000" fill-rule="evenodd" d="m26.697 16.382.5-.913.511-.899 1.014-.008 1.008.008.514.904.498.908-.5.912-.512.9-1.013.008-1.009-.008-.514-.904-.497-.908Zm1.068.57.321.564.633.006.633-.005.321-.565.313-.57-.313-.57-.32-.565-.634-.005-.633.005-.32.565-.313.57.312.57Z" clip-rule="evenodd"/><path fill="#ECBC4D" d="m27.101 12.944.399-.81.41-.8.81-.008.808.007.41.802.399.809-.399.809-.41.801-.809.008-.809-.008-.41-.801-.399-.81Z"/><path fill="#000" fill-rule="evenodd" d="m26.697 13.146.5-.912.511-.9 1.014-.008 1.008.008.514.904.498.908-.5.912-.512.9-1.013.008-1.009-.008-.514-.904-.497-.908Zm1.068.57.321.565.633.005.633-.005.321-.565.313-.57-.313-.57-.32-.564-.634-.006-.633.006-.32.564-.313.57.312.57Z" clip-rule="evenodd"/><path fill="#ECBC4D" d="m27.101 9.506.399-.708.41-.702.81-.006.808.006.41.702.399.708-.399.707-.41.702-.809.006-.809-.006-.41-.701-.399-.708Z"/><path fill="#000" fill-rule="evenodd" d="m26.697 9.506.5-.913.511-.9 1.014-.008 1.008.009.514.904.498.908-.5.912-.512.9-1.013.008-1.009-.008-.514-.904-.497-.908Zm1.068.57.321.564.633.005.633-.005.321-.564.313-.57-.313-.57-.32-.565-.634-.005-.633.005-.32.565-.313.57.312.57Z" clip-rule="evenodd"/><path fill="#ECBC4D" d="m27.101 6.472.399-.607.41-.601.81-.006.808.006.41.601.399.607-.399.607-.41.6-.809.006-.809-.005-.41-.601-.399-.607Z"/><path fill="#000" fill-rule="evenodd" d="m26.697 6.472.5-.811.511-.8 1.014-.007 1.008.007.514.804.498.807-.5.81-.512.8-1.013.008-1.009-.008-.514-.803-.497-.807Zm1.068.506.321.502.633.005.633-.005.321-.502.313-.506-.313-.507-.32-.502-.634-.004-.633.004-.32.502-.313.507.312.506Z" clip-rule="evenodd"/><path fill="#ECBC4D" d="m27.101 3.034.399-.708.41-.702.81-.006.808.006.41.702.399.708-.399.708-.41.701-.809.006-.809-.006-.41-.701-.399-.708Z"/><path fill="#000" fill-rule="evenodd" d="m26.697 3.034.5-.913.511-.9 1.014-.007 1.008.008.514.904.498.908-.5.912-.512.9-1.013.008-1.009-.008-.514-.904-.497-.908Zm1.068.57.321.564.633.006.633-.006.321-.564.313-.57-.313-.57-.32-.565-.634-.005-.633.005-.32.565-.313.57.312.57Z" clip-rule="evenodd"/><path fill="#ECBC4D" d="m29.528 21.843.4-.81.41-.8.808-.008.81.007.41.802.398.809-.399.809-.41.801-.809.008-.809-.008-.41-.801-.399-.81Z"/><path fill="#000" fill-rule="evenodd" d="m29.123 21.64.5-.912.512-.9 1.014-.008 1.008.009.514.904.498.907-.5.913-.512.9-1.014.008-1.008-.009-.514-.904-.497-.907Zm1.069.57.32.565.634.005.633-.005.321-.565.312-.57-.312-.57-.32-.564-.634-.005-.633.005-.321.565-.312.57.312.57Z" clip-rule="evenodd"/><path fill="#ECBC4D" d="m29.528 18.405.4-.708.41-.702.808-.006.81.006.41.702.398.708-.399.707-.41.702-.809.006-.809-.006-.41-.702-.399-.707Z"/><path fill="#000" fill-rule="evenodd" d="m29.123 18.404.5-.912.512-.9 1.014-.008 1.008.009.514.904.498.907-.5.913-.512.9-1.014.008-1.008-.009-.514-.904-.497-.908Zm1.069.57.32.565.634.005.633-.005.321-.565.312-.57-.312-.57-.32-.564-.634-.005-.633.005-.321.564-.312.57.312.57Z" clip-rule="evenodd"/><path fill="#ECBC4D" d="m29.528 14.966.4-.809.41-.801.808-.008.81.008.41.801.398.81-.399.808-.41.802-.809.007-.809-.007-.41-.802-.399-.809Z"/><path fill="#000" fill-rule="evenodd" d="m29.123 15.168.5-.912.512-.9 1.014-.008 1.008.009.514.904.498.908-.5.912-.512.9-1.014.008-1.008-.009-.514-.904-.497-.908Zm1.069.57.32.565.634.005.633-.005.321-.565.312-.57-.312-.57-.32-.564-.634-.005-.633.005-.321.565-.312.57.312.57Z" clip-rule="evenodd"/><path fill="#ECBC4D" d="m29.528 11.528.4-.708.41-.701.808-.007.81.007.41.701.398.708-.399.708-.41.701-.809.007-.809-.007-.41-.701-.399-.708Z"/><path fill="#000" fill-rule="evenodd" d="m29.123 11.528.5-.912.512-.9 1.014-.008 1.008.008.514.904.498.908-.5.913-.512.9-1.014.007-1.008-.008-.514-.904-.497-.908Zm1.069.57.32.565.634.005.633-.005.321-.565.312-.57-.312-.57-.32-.564-.634-.006-.633.006-.321.564-.312.57.312.57Z" clip-rule="evenodd"/><path fill="#ECBC4D" d="m29.528 8.494.4-.606.41-.602.808-.005.81.005.41.602.398.606-.399.607-.41.601-.809.006-.809-.006-.41-.601-.399-.607Z"/><path fill="#000" fill-rule="evenodd" d="m29.123 8.494.5-.81.512-.8 1.014-.008 1.008.008.514.803.498.807-.5.811-.512.8-1.014.007-1.008-.007-.514-.804-.497-.807Zm1.069.507.32.502.634.004.633-.004L32.1 9l.312-.507-.312-.506-.32-.502-.634-.005-.633.005-.321.502-.312.506.312.507Z" clip-rule="evenodd"/><path fill="#ECBC4D" d="m29.528 5.258.4-.809.41-.801.808-.007.81.007.41.801.398.81-.399.808-.41.802-.809.007-.809-.007-.41-.802-.399-.809Z"/><path fill="#000" fill-rule="evenodd" d="m29.123 5.056.5-.912.512-.9 1.014-.008 1.008.008.514.904.498.908-.5.913-.512.9-1.014.007-1.008-.008-.514-.904-.497-.908Zm1.069.57.32.565.634.005.633-.005.321-.565.312-.57-.312-.57-.32-.564-.634-.006-.633.006-.321.564-.312.57.312.57Z" clip-rule="evenodd"/><path fill="#ECBC4D" d="m29.528 1.82.4-.708.41-.701.808-.007.81.007.41.701.398.708-.399.708-.41.701-.809.007-.809-.007-.41-.701-.399-.708Z"/><path fill="#000" fill-rule="evenodd" d="m29.123 1.82.5-.912.512-.9L31.149 0l1.008.008.514.904.498.908-.5.913-.512.899-1.014.008-1.008-.008-.514-.904-.497-.908Zm1.069.57.32.565.634.005.633-.005.321-.565.312-.57-.312-.57-.32-.564-.634-.006-.633.006-.321.564-.312.57.312.57Z" clip-rule="evenodd"/><path fill="#ECBC4D" d="m32.36 23.258.398-.707.41-.702.81-.006.808.006.41.701.4.708-.4.708-.41.702-.809.006-.809-.006-.41-.702-.399-.708Z"/><path fill="#000" fill-rule="evenodd" d="m31.955 23.258.5-.912.511-.9 1.014-.008 1.009.009.514.904.497.907-.5.913-.511.9-1.014.008-1.009-.009-.514-.904-.497-.908Zm1.068.57.321.565.634.005.633-.005.32-.565.313-.57-.312-.57-.321-.564-.633-.005-.634.005-.32.565-.313.57.312.57Z" clip-rule="evenodd"/><path fill="#ECBC4D" d="m32.36 19.618.398-.708.41-.701.81-.007.808.007.41.701.4.708-.4.708-.41.701-.809.007-.809-.007-.41-.701-.399-.708Z"/><path fill="#000" fill-rule="evenodd" d="m31.955 19.618.5-.912.511-.9 1.014-.008 1.009.008.514.904.497.908-.5.913-.511.899-1.014.008-1.009-.008-.514-.904-.497-.908Zm1.068.57.321.565.634.005.633-.005.32-.565.313-.57-.312-.57-.321-.564-.633-.006-.634.005-.32.565-.313.57.312.57Z" clip-rule="evenodd"/><path fill="#ECBC4D" d="m32.36 16.382.398-.708.41-.701.81-.007.808.007.41.701.4.708-.4.708-.41.701-.809.007-.809-.007-.41-.701-.399-.708Z"/><path fill="#000" fill-rule="evenodd" d="m31.955 16.382.5-.913.511-.899 1.014-.008 1.009.008.514.904.497.908-.5.912-.511.9-1.014.008-1.009-.008-.514-.904-.497-.908Zm1.068.57.321.564.634.006.633-.005.32-.565.313-.57-.312-.57-.321-.565-.633-.005-.634.005-.32.565-.313.57.312.57Z" clip-rule="evenodd"/><path fill="#ECBC4D" d="m32.36 12.944.398-.81.41-.8.81-.008.808.007.41.802.4.809-.4.809-.41.801-.809.008-.809-.008-.41-.801-.399-.81Z"/><path fill="#000" fill-rule="evenodd" d="m31.955 13.146.5-.912.511-.9 1.014-.008 1.009.008.514.904.497.908-.5.912-.511.9-1.014.008-1.009-.008-.514-.904-.497-.908Zm1.068.57.321.565.634.005.633-.005.32-.565.313-.57-.312-.57-.321-.564-.633-.006-.634.006-.32.564-.313.57.312.57Z" clip-rule="evenodd"/><path fill="#ECBC4D" d="m32.36 9.506.398-.708.41-.702.81-.006.808.006.41.702.4.708-.4.707-.41.702-.809.006-.809-.006-.41-.701-.399-.708Z"/><path fill="#000" fill-rule="evenodd" d="m31.955 9.506.5-.913.511-.9 1.014-.008 1.009.009.514.904.497.908-.5.912-.511.9-1.014.008-1.009-.008-.514-.904-.497-.908Zm1.068.57.321.564.634.005.633-.005.32-.564.313-.57-.312-.57-.321-.565-.633-.005-.634.005-.32.565-.313.57.312.57Z" clip-rule="evenodd"/><path fill="#ECBC4D" d="m32.36 6.472.398-.607.41-.601.81-.006.808.006.41.601.4.607-.4.607-.41.6-.809.006-.809-.005-.41-.601-.399-.607Z"/><path fill="#000" fill-rule="evenodd" d="m31.955 6.472.5-.811.511-.8 1.014-.007 1.009.007.514.804.497.807-.5.81-.511.8-1.014.008-1.009-.008-.514-.803-.497-.807Zm1.068.506.321.502.634.005.633-.005.32-.502.313-.506-.312-.507-.321-.502-.633-.004-.634.004-.32.502-.313.507.312.506Z" clip-rule="evenodd"/><path fill="#ECBC4D" d="m32.36 3.034.398-.708.41-.702.81-.006.808.006.41.702.4.708-.4.708-.41.701-.809.006-.809-.006-.41-.701-.399-.708Z"/><path fill="#000" fill-rule="evenodd" d="m31.955 3.034.5-.913.511-.9 1.014-.007 1.009.008.514.904.497.908-.5.912-.511.9-1.014.008-1.009-.008-.514-.904-.497-.908Zm1.068.57.321.564.634.006.633-.006.32-.564.313-.57-.312-.57-.321-.565-.633-.005-.634.005-.32.565-.313.57.312.57Z" clip-rule="evenodd"/><path fill="#ECBC4D" d="m.404 23.258.4-.707.41-.702.808-.006.81.006.41.701.398.708-.399.708-.41.702-.809.006-.809-.006-.41-.702-.399-.708Z"/><path fill="#000" fill-rule="evenodd" d="m0 23.258.5-.912.511-.9 1.014-.008 1.009.009.514.904.497.907-.5.913-.511.9-1.014.008-1.009-.009-.514-.904L0 23.258Zm1.068.57.321.565.633.005.634-.005.32-.565.313-.57-.312-.57-.321-.564-.634-.005-.633.005-.32.565-.313.57.312.57Z" clip-rule="evenodd"/><path fill="#ECBC4D" d="m.404 19.618.4-.708.41-.701.808-.007.81.007.41.701.398.708-.399.708-.41.701-.809.007-.809-.007-.41-.701-.399-.708Z"/><path fill="#000" fill-rule="evenodd" d="m0 19.618.5-.912.511-.9 1.014-.008 1.009.008.514.904.497.908-.5.913-.511.899-1.014.008-1.009-.008-.514-.904L0 19.618Zm1.068.57.321.565.633.005.634-.005.32-.565.313-.57-.312-.57-.321-.564-.634-.006-.633.005-.32.565-.313.57.312.57Z" clip-rule="evenodd"/><path fill="#ECBC4D" d="m.404 16.382.4-.708.41-.701.808-.007.81.007.41.701.398.708-.399.708-.41.701-.809.007-.809-.007-.41-.701-.399-.708Z"/><path fill="#000" fill-rule="evenodd" d="m0 16.382.5-.913.511-.899 1.014-.008 1.009.008.514.904.497.908-.5.912-.511.9-1.014.008-1.009-.008-.514-.904L0 16.382Zm1.068.57.321.564.633.006.634-.005.32-.565.313-.57-.312-.57-.321-.565-.634-.005-.633.005-.32.565-.313.57.312.57Z" clip-rule="evenodd"/><path fill="#ECBC4D" d="m.404 12.944.4-.81.41-.8.808-.008.81.007.41.802.398.809-.399.809-.41.801-.809.008-.809-.008-.41-.801-.399-.81Z"/><path fill="#000" fill-rule="evenodd" d="m0 13.146.5-.912.511-.9 1.014-.008 1.009.008.514.904.497.908-.5.912-.511.9-1.014.008-1.009-.008-.514-.904L0 13.146Zm1.068.57.321.565.633.005.634-.005.32-.565.313-.57-.312-.57-.321-.564-.634-.006-.633.006-.32.564-.313.57.312.57Z" clip-rule="evenodd"/><path fill="#ECBC4D" d="m.404 9.506.4-.708.41-.702.808-.006.81.006.41.702.398.708-.399.707-.41.702-.809.006-.809-.006-.41-.701-.399-.708Z"/><path fill="#000" fill-rule="evenodd" d="m0 9.506.5-.913.511-.9 1.014-.008 1.009.009.514.904.497.908-.5.912-.511.9-1.014.008-1.009-.008-.514-.904L0 9.506Zm1.068.57.321.564.633.005.634-.005.32-.564.313-.57-.312-.57-.321-.565-.634-.005-.633.005-.32.565-.313.57.312.57Z" clip-rule="evenodd"/><path fill="#ECBC4D" d="m.404 6.472.4-.607.41-.601.808-.006.81.006.41.601.398.607-.399.607-.41.6-.809.006-.809-.005-.41-.601-.399-.607Z"/><path fill="#000" fill-rule="evenodd" d="m0 6.472.5-.811.511-.8 1.014-.007 1.009.007.514.804.497.807-.5.81-.511.8-1.014.008-1.009-.008-.514-.803L0 6.472Zm1.068.506.321.502.633.005.634-.005.32-.502.313-.506-.312-.507-.321-.502-.634-.004-.633.004-.32.502-.313.507.312.506Z" clip-rule="evenodd"/><path fill="#ECBC4D" d="m.404 3.034.4-.708.41-.702.808-.006.81.006.41.702.398.708-.399.708-.41.701-.809.006-.809-.006-.41-.701-.399-.708Z"/><path fill="#000" fill-rule="evenodd" d="m0 3.034.5-.913.511-.9 1.014-.007 1.009.008.514.904.497.908-.5.912-.511.9-1.014.008-1.009-.008-.514-.904L0 3.034Zm1.068.57.321.564.633.006.634-.006.32-.564.313-.57-.312-.57-.321-.565-.634-.005-.633.005-.32.565-.313.57.312.57Z" clip-rule="evenodd"/><path fill="#000" d="M11.298 31.228v.578H8.596v-.578h2.702Zm-2.51 0v1.533h-.665l-.033-1.533h.697Zm3.031 0-.053 1.536h-.65v-1.536h.704Zm-.957-3.318v.58H9.116v-.58h1.746Zm.517 0v3.896h-.697V27.91h.697Zm-2.375 0h.7l-.094 1.584a5.267 5.267 0 0 1-.077.683c-.035.2-.08.377-.132.532a2.576 2.576 0 0 1-.176.41 1.844 1.844 0 0 1-.634.687h-.39v-.578h.169c.05-.044.1-.107.155-.187.056-.08.11-.187.16-.319a2.83 2.83 0 0 0 .138-.5c.04-.202.067-.444.084-.728l.097-1.584Zm5.29.592-1.057 3.304h-.74l1.384-3.896h.474l-.061.591Zm.883 3.304-1.062-3.305-.063-.59h.476l1.392 3.895h-.743Zm-.048-1.448v.581H13.14v-.58h1.989Zm4.681.87v.578h-2.701v-.578h2.7Zm-2.51 0v1.533h-.665l-.033-1.533h.698Zm3.032 0-.054 1.536h-.649v-1.536h.703Zm-.957-3.318v.58h-1.747v-.58h1.747Zm.516 0v3.896h-.697V27.91h.697Zm-2.375 0h.7l-.094 1.584a5.262 5.262 0 0 1-.076.683c-.036.2-.08.377-.133.532a2.583 2.583 0 0 1-.175.41 1.85 1.85 0 0 1-.634.687h-.39v-.578h.168a.984.984 0 0 0 .155-.187c.056-.08.11-.187.16-.319.053-.132.1-.298.138-.5.04-.202.067-.444.084-.728l.097-1.584Zm5.29.592-1.057 3.304h-.74l1.384-3.896h.474l-.061.591Zm.883 3.304-1.061-3.305-.064-.59h.476l1.393 3.895h-.744Zm-.048-1.448v.581h-1.988v-.58h1.988Zm4.154-.84v.578h-1.95v-.578h1.95Zm-1.759-1.608v3.896h-.7V27.91h.7Zm2.279 0v3.896h-.7V27.91h.7Z"/></svg>