<svg xmlns="http://www.w3.org/2000/svg" fill="none" viewBox="0 0 19 36"><path fill="#000" d="M8.11 14.79v-1.65c-.56-.2-1.12-.34-1.6-.61-1.41-.78-2.03-2.07-2.16-3.62A7.9 7.9 0 0 1 5.21 5C5.98 3.3 6.98 1.74 8.13.27c.27-.35.54-.37.79-.05a20.83 20.83 0 0 1 3.46 6.11 5.8 5.8 0 0 1 0 4.14 3.98 3.98 0 0 1-3.05 2.51l-.17.04-.18.04v1.72h7.09c.98 0 1.75.39 2.18 1.29.14.3.22.65.23.99a66.9 66.9 0 0 1 0 3.47 2.8 2.8 0 0 1-1.1 2.2.76.76 0 0 0-.3.64c.02 3.98.02 7.95.01 11.92 0 .61-.09.7-.7.7H.77c-.69 0-.76-.07-.76-.74V17.03c0-1.3.92-2.23 2.23-2.24h5.88Zm-3.77.85H2.31c-.95 0-1.48.52-1.48 1.47v17.67l.02.37h15.36V23.38c-.27.02-.5.06-.75.06-.79.02-1.1.33-1.1 1.12V29a2.2 2.2 0 0 1-1.5 2.1c-1.5.5-2.99-.55-3-2.13v-8c0-.59-.41-1.01-.98-1.01-.59 0-.99.39-1 1v1.5a1.75 1.75 0 0 1-2.01 1.82 1.73 1.73 0 0 1-1.52-1.72v-6.48l-.01-.44Zm.87 0-.04.17v6.74a.92.92 0 0 0 .96.92.9.9 0 0 0 .9-.93c.02-.56 0-1.1.02-1.66.02-.6.26-1.1.8-1.44.62-.4 1.28-.43 1.92-.08.64.34.93.91.92 1.64l.01 7.85c0 .32.1.63.25.91.33.55.97.75 1.57.58a1.43 1.43 0 0 0 1.01-1.37v-4.62a1.7 1.7 0 0 1 1.75-1.74c1.48-.02 2.37-.92 2.38-2.4v-2.96c0-1.04-.58-1.62-1.62-1.62H5.21ZM8.57 1.12l-.11.1a20.7 20.7 0 0 0-2.8 4.93 5.64 5.64 0 0 0-.36 3.43c.33 1.34 1.13 2.26 2.5 2.56 1.36.3 2.52-.1 3.37-1.2a4 4 0 0 0 .66-3.32c-.47-2.45-1.84-4.47-3.26-6.5Z"/><path fill="#ECBC4D" d="M5.2 15.63h10.85c1.04 0 1.61.58 1.61 1.63v2.96c0 1.48-.9 2.38-2.37 2.4a1.68 1.68 0 0 0-1.75 1.74v4.61a1.43 1.43 0 0 1-1.02 1.37 1.34 1.34 0 0 1-1.56-.57 1.87 1.87 0 0 1-.25-.91 685 685 0 0 1-.01-7.85c0-.73-.29-1.3-.92-1.65a1.82 1.82 0 0 0-1.93.08 1.7 1.7 0 0 0-.8 1.45c-.02.55 0 1.1 0 1.65a.92.92 0 0 1-.9.93.92.92 0 0 1-.97-.91V15.8c0-.06.02-.12.04-.18Z"/><path fill="#000" d="M3.11 27.35v3.37c0 .38-.24.6-.52.47-.14-.07-.3-.28-.3-.43v-6.81c0-.3.18-.5.43-.47.28.03.4.2.4.5v3.37ZM6 9c.03-.96.31-1.77.74-2.53.42-.75.91-1.48 1.4-2.2.24-.36.53-.37.79-.04a10.92 10.92 0 0 1 2.01 3.73c.24.88.2 1.74-.28 2.53a2.5 2.5 0 0 1-2.5 1.14 2.49 2.49 0 0 1-2.08-2.06C6.04 9.36 6.02 9.14 6 9Zm2.54-3.88a9.49 9.49 0 0 0-1.56 3.01c-.1.41-.13.84-.07 1.26.09.67.48 1.16 1.15 1.36.65.19 1.24.04 1.7-.46.49-.54.56-1.2.42-1.88a9 9 0 0 0-1.64-3.3Z"/><path fill="#ECBC4D" d="M8.54 5.12a9.05 9.05 0 0 1 1.64 3.3c.14.67.07 1.33-.42 1.87-.46.5-1.05.65-1.7.46a1.55 1.55 0 0 1-1.15-1.36c-.06-.42-.03-.85.07-1.26a9.5 9.5 0 0 1 1.56-3.01Z"/></svg>