<svg xmlns="http://www.w3.org/2000/svg" fill="none" viewBox="0 0 118 49"><path fill="#fff" d="M40.39 28.42v-.24c-.05-.93.27-1.82.64-2.6.47-1.05 1.1-2.01 1.85-2.85.27-.3.58-.55.93-.75.56-.28 1.67.28 1.8.65.2.38-.32.42-.7.8a11.61 11.61 0 0 0-2.86 5.03c-.14.75 0 1.17.37 1.12.4-.15.75-.4 1.01-.75 1.85-2.64 1.9-4.1 2.64-3.86.7.28.88.83.93 1.49.04.65.09 1.26.09 1.86.04.28 0 .66.23.75.46.14 2.54-3.45 3.05-4.2a.45.45 0 0 1 .42-.18c.23.14.23.65-.05 1.26-.5.88-1.99 3.35-2.26 3.63-.51.7-1.25.6-1.8.19-.6-.42-.84-1.12-.88-1.82v-.84c0-.05 0-.14-.05-.14-.1-.05-.1.05-.14.14l-.46 1.03a7.7 7.7 0 0 1-1.02 1.67c-.7.8-1.43 1.03-2.36.71a2.2 2.2 0 0 1-1.38-2.1Z"/><path fill="#fff" d="M52.55 36.38c.07-.84.17-1.68.33-2.52.23-1.3.41-2.56.27-3.87-.18-1.54-.64-2.98-2.03-3.91-.56-.37-1.11-.8-1.67-1.22a5.31 5.31 0 0 1-2.08-5.03 11.33 11.33 0 0 1 2.55-6.05 4.45 4.45 0 0 1 1.7-1.36c.71-.32 1.4-.42 2.1.05.04 0 .08 0 .08.05 1.85.74 2.09 2.14 1.85 3.73-.32 2.1-1.2 4-2.26 5.83-.38.66-.81 1.28-1.3 1.86a3.6 3.6 0 0 0-.46.75c-.14.23-.1.37.1.51.29.2.57.41.82.65a6.26 6.26 0 0 1 2.13 4.2c.19 1.59-.1 3.08-.37 4.61-.14.8-.32 1.64-.42 2.48 0 .1-.04.14-.04.23 0 .1 0 .18.1.23.13.1.18-.04.22-.09.28-.3.51-.62.7-.98.51-.93.97-1.87 1.44-2.84a78.23 78.23 0 0 1 3.8-7c.38-.7.83-1.37 1.33-2 .24-.37.37-.37.7-.1.1.1.14.2.1.28l-.1.14a65.58 65.58 0 0 0-5.32 9.94c-.37.79-.74 1.58-1.2 2.37-.17.31-.37.61-.6.89-.5.6-1.3.65-1.9.09-.52-.5-.61-1.21-.57-1.92Zm-2.03-12.54.65-1.35c.69-1.24 1.3-2.54 1.8-3.87.4-.89.67-1.83.83-2.8.09-.6.14-1.2-.05-1.81-.14-.42-.23-.47-.7-.28-.4.16-.76.42-1.05.75a10.06 10.06 0 0 0-2.73 7.27c.02.8.31 1.55.83 2.15.23.23.28.23.42-.06Z"/><path fill="#fff" d="M60.28 46.37a10.12 10.12 0 0 1-1.3-3.83 24.05 24.05 0 0 1-.17-5.82c.2-2.66.63-5.3 1.25-7.89 1.3-5.82 3.6-11.28 6.34-16.6.97-1.96 2.08-3.87 3.19-5.78.1-.14.28-.28.23-.51-.37-.05-.7.14-1.02.23a47.6 47.6 0 0 0-10.22 3.87c-.71.35-1.38.77-2 1.26-.23.18-.42.1-.6 0a.36.36 0 0 1-.24-.23.37.37 0 0 1 .05-.33c.09-.25.23-.47.42-.65.37-.38.8-.7 1.25-.98a33.54 33.54 0 0 1 6.9-3.18c2.01-.66 4.06-1.2 6.14-1.63.3-.07.57-.25.74-.51.6-.97 1.25-1.9 1.95-2.79.22-.29.47-.55.74-.8a.77.77 0 0 1 .83-.13c.32.16.63.34.93.56.27.23.32.42.13.74-.21.5-.49.97-.83 1.4l-.37.56c-.1.23-.1.28.19.23 1.01-.09 2.03-.23 3.05-.32 2.08-.18 4.12-.38 6.2-.38.8 0 1.61.06 2.4.2.7.12 1.36.39 1.95.78.4.23.69.6.83 1.03.08.14.1.3.1.47 0 .14-.1.23-.18.18-.37-.04-.79-.1-.93-.51-.18-.51-.6-.75-1.06-.84a9.32 9.32 0 0 0-1.13-.19c-1.15 0-2.31 0-3.42.05a114.35 114.35 0 0 0-8.7.98c-.28.05-.42.23-.55.47a249.44 249.44 0 0 0-3.43 5.96c-3 5.55-5.5 11.34-7.25 17.44a61.5 61.5 0 0 0-1.8 8.67c-.22 1.4-.31 2.82-.29 4.24.05 1.3.14 2.57.6 3.78.18.6.47 1.16.88 1.63.65.88 1.58 1.03 2.55.98a7.94 7.94 0 0 0 3.24-.98 28.67 28.67 0 0 0 5.6-3.96 62.9 62.9 0 0 0 7.36-7.88 86 86 0 0 0 7.04-9.84l.14-.23c.13-.24.27-.14.5-.05.23.14.19.28.05.47-.79 1.25-1.53 2.56-2.4 3.77A92.35 92.35 0 0 1 75.7 42.26 43.72 43.72 0 0 1 69.92 47a13.03 13.03 0 0 1-3.61 1.77c-.88.24-1.8.27-2.69.1a5.01 5.01 0 0 1-3.34-2.51ZM4.16 16.2l3.26 8.9h-.96L3.7 17.4.96 25.1H0l3.26-8.9h.9Zm19.54 0h.87v8.9h-.76l-4.92-7.23v7.24h-.87v-8.9h.75l4.92 7.24V16.2Zm17.74 0v.84h-2.71v8.07h-.88v-8.07h-2.72v-.83h6.3Z"/><path fill="#fff" d="M57.42 16.2h.87v8.9h-.87v-8.9Zm16.74 4.76v4.15h.88V21.8h2.28a2.77 2.77 0 0 0 2.77-2.8 2.8 2.8 0 0 0-2.77-2.8h-3.16v.84h3.16a1.8 1.8 0 0 1 1.36.56 2.1 2.1 0 0 1 0 2.8 1.81 1.81 0 0 1-1.35.56h-3.16m24.49 2.96a4.56 4.56 0 0 1-7.8-3.26 4.63 4.63 0 0 1 4.11-4.57 4.54 4.54 0 0 1 4.93 3.67 4.64 4.64 0 0 1-1.24 4.16Zm-5.86-.6a3.72 3.72 0 0 0 5.25 0 3.84 3.84 0 0 0 0-5.3 3.72 3.72 0 0 0-5.25 0 3.84 3.84 0 0 0 0 5.3Zm21.04 1.78-3.26-8.9h.96l2.75 7.72 2.75-7.71h.96l-3.26 8.9h-.9Z"/></svg>